<svg width="30" height="30" viewBox="0 0 30 30" fill="none" xmlns="http://www.w3.org/2000/svg">
<rect x="0.5" y="0.5" width="29" height="29" rx="14.5" fill="#FDFDFD"/>
<rect x="0.5" y="0.5" width="29" height="29" rx="14.5" stroke="#E7E7E7"/>
<path d="M20.25 20.833H9.75C9.51083 20.833 9.3125 20.6347 9.3125 20.3955C9.3125 20.1563 9.51083 19.958 9.75 19.958H20.25C20.4892 19.958 20.6875 20.1563 20.6875 20.3955C20.6875 20.6347 20.4892 20.833 20.25 20.833Z" fill="black"/>
<path d="M19.0958 10.0296C17.9641 8.89798 16.8558 8.86881 15.695 10.0296L14.9891 10.7355C14.9308 10.7938 14.9075 10.8871 14.9308 10.9688C15.3741 12.5146 16.6108 13.7513 18.1566 14.1946C18.18 14.2005 18.2033 14.2063 18.2267 14.2063C18.2908 14.2063 18.3491 14.183 18.3958 14.1363L19.0958 13.4305C19.6733 12.8588 19.9533 12.3046 19.9533 11.7446C19.9591 11.1671 19.6792 10.6071 19.0958 10.0296Z" fill="black"/>
<path d="M17.1059 14.726C16.9367 14.6443 16.7734 14.5626 16.6159 14.4693C16.4875 14.3935 16.365 14.3118 16.2425 14.2243C16.1434 14.1601 16.0267 14.0668 15.9159 13.9735C15.9042 13.9676 15.8634 13.9326 15.8167 13.886C15.6242 13.7226 15.4084 13.5126 15.2159 13.2793C15.1984 13.2676 15.1692 13.2268 15.1284 13.1743C15.07 13.1043 14.9709 12.9876 14.8834 12.8535C14.8134 12.766 14.7317 12.6376 14.6559 12.5093C14.5625 12.3518 14.4809 12.1943 14.3992 12.031C14.2921 11.8015 13.991 11.7334 13.8119 11.9124L10.5317 15.1926C10.4559 15.2685 10.3859 15.4143 10.3684 15.5135L10.0534 17.7476C9.99502 18.1443 10.1059 18.5176 10.3509 18.7685C10.5609 18.9726 10.8525 19.0835 11.1675 19.0835C11.2375 19.0835 11.3075 19.0776 11.3775 19.066L13.6175 18.751C13.7225 18.7335 13.8684 18.6635 13.9384 18.5876L17.224 15.302C17.3995 15.1265 17.3335 14.8246 17.1059 14.726Z" fill="black"/>
</svg>
