<svg width="22" height="23" viewBox="0 0 22 23" fill="none" xmlns="http://www.w3.org/2000/svg">
<path d="M18.3618 9.23679L11.4868 16.1118C11.4229 16.1757 11.3471 16.2264 11.2637 16.261C11.1802 16.2956 11.0907 16.3134 11.0004 16.3134C10.91 16.3134 10.8206 16.2956 10.7371 16.261C10.6536 16.2264 10.5778 16.1757 10.514 16.1118L3.63898 9.23679C3.50997 9.10779 3.4375 8.93282 3.4375 8.75038C3.4375 8.56794 3.50997 8.39298 3.63898 8.26398C3.76798 8.13497 3.94294 8.0625 4.12538 8.0625C4.30782 8.0625 4.48279 8.13497 4.61179 8.26398L11.0004 14.6534L17.389 8.26398C17.4529 8.2001 17.5287 8.14943 17.6121 8.11486C17.6956 8.08029 17.785 8.0625 17.8754 8.0625C17.9657 8.0625 18.0552 8.08029 18.1386 8.11486C18.2221 8.14943 18.2979 8.2001 18.3618 8.26398C18.4257 8.32785 18.4763 8.40368 18.5109 8.48714C18.5455 8.5706 18.5633 8.66005 18.5633 8.75038C18.5633 8.84072 18.5455 8.93017 18.5109 9.01362C18.4763 9.09708 18.4257 9.17291 18.3618 9.23679Z" fill="white"/>
</svg>
