<svg width="26" height="27" viewBox="0 0 26 27" fill="none" xmlns="http://www.w3.org/2000/svg">
<path d="M13.0001 25.1458C6.57591 25.1458 1.35425 19.9241 1.35425 13.5C1.35425 7.07579 6.57591 1.85413 13.0001 1.85413C19.4242 1.85413 24.6459 7.07579 24.6459 13.5C24.6459 19.9241 19.4242 25.1458 13.0001 25.1458ZM13.0001 3.47913C7.47508 3.47913 2.97925 7.97496 2.97925 13.5C2.97925 19.025 7.47508 23.5208 13.0001 23.5208C18.5251 23.5208 23.0209 19.025 23.0209 13.5C23.0209 7.97496 18.5251 3.47913 13.0001 3.47913Z" fill="#EAB721"/>
<path d="M9.93406 17.3783C9.72823 17.3783 9.52239 17.3025 9.35989 17.14C9.04573 16.8258 9.04573 16.3058 9.35989 15.9917L15.4916 9.86001C15.8057 9.54585 16.3257 9.54585 16.6399 9.86001C16.9541 10.1742 16.9541 10.6942 16.6399 11.0083L10.5082 17.14C10.3566 17.3025 10.1399 17.3783 9.93406 17.3783Z" fill="#EAB721"/>
<path d="M16.0657 17.3783C15.8599 17.3783 15.6541 17.3025 15.4916 17.14L9.35989 11.0083C9.04573 10.6942 9.04573 10.1742 9.35989 9.86001C9.67406 9.54585 10.1941 9.54585 10.5082 9.86001L16.6399 15.9917C16.9541 16.3058 16.9541 16.8258 16.6399 17.14C16.4774 17.3025 16.2716 17.3783 16.0657 17.3783Z" fill="#EAB721"/>
</svg>
