<svg width="45" height="46" viewBox="0 0 45 46" fill="none" xmlns="http://www.w3.org/2000/svg">
<g clip-path="url(#clip0_772_9124)">
<path d="M22.5 45.0695C10.3837 45.0695 0.527344 35.2116 0.527344 23.0968C0.527344 10.982 10.3837 1.12415 22.5 1.12415C34.6148 1.12415 44.4727 10.982 44.4727 23.0968C44.4727 35.2116 34.6148 45.0695 22.5 45.0695Z" fill="#4C4C4C" fill-opacity="0.16"/>
<g clip-path="url(#clip1_772_9124)">
<path d="M19.5 25.3468L18.75 25.3453V25.3468H19.5ZM26.25 25.3468H27L26.25 25.3453V25.3468Z" fill="#EAB721"/>
<path d="M34.605 23.0968C34.605 21.4422 33.2595 20.0967 31.605 20.0967C30.9435 20.0967 30.315 20.3128 29.802 20.7043C28.128 19.5417 25.935 18.8488 23.6025 18.6733L24.861 15.7212L28.5225 16.5762C28.6395 17.7088 29.5875 18.5968 30.75 18.5968C31.9905 18.5968 33 17.5872 33 16.3467C33 15.1062 31.9905 14.0967 30.75 14.0967C29.964 14.0967 29.2725 14.5032 28.8705 15.1167L24.591 14.1162C24.4189 14.0756 24.2379 14.0971 24.0801 14.177C23.9222 14.2569 23.7977 14.39 23.7285 14.5527L21.9885 18.6328C19.47 18.7198 17.07 19.4293 15.258 20.6653C14.8098 20.3425 14.2813 20.1495 13.7306 20.1077C13.1799 20.0658 12.6283 20.1767 12.1365 20.428C11.6447 20.6793 11.2317 21.0614 10.943 21.5323C10.6543 22.0031 10.501 22.5444 10.5 23.0968C10.4989 23.6253 10.6388 24.1447 10.9054 24.6011C11.172 25.0575 11.5555 25.4346 12.0165 25.6932C12.0049 25.8274 11.9994 25.9621 12 26.0968C12 30.2323 16.71 33.5968 22.5 33.5968C28.2885 33.5968 33 30.2323 33 26.0968C33 25.9798 32.9955 25.8643 32.988 25.7487C33.476 25.499 33.8854 25.1191 34.1708 24.651C34.4562 24.1829 34.6065 23.645 34.605 23.0968ZM30.75 15.5967C30.9493 15.5971 31.1403 15.6767 31.281 15.8179C31.4216 15.9591 31.5004 16.1504 31.5 16.3497C31.4996 16.5491 31.4201 16.74 31.2788 16.8807C31.1376 17.0214 30.9463 17.1001 30.747 17.0997C30.6483 17.0996 30.5506 17.0799 30.4595 17.042C30.3684 17.004 30.2857 16.9485 30.2161 16.8786C30.1464 16.8087 30.0912 16.7257 30.0536 16.6345C30.0161 16.5432 29.9968 16.4454 29.997 16.3467C29.9972 16.2481 30.0168 16.1504 30.0548 16.0593C30.0927 15.9682 30.1483 15.8854 30.2182 15.8158C30.2881 15.7462 30.3711 15.691 30.4623 15.6534C30.5536 15.6158 30.6513 15.5966 30.75 15.5967ZM17.25 25.3468C17.25 24.5203 17.9235 23.8468 18.75 23.8468C19.5765 23.8468 20.25 24.5203 20.25 25.3468C20.2327 25.733 20.0671 26.0976 19.7877 26.3648C19.5083 26.632 19.1366 26.7812 18.75 26.7812C18.3634 26.7812 17.9917 26.632 17.7123 26.3648C17.4329 26.0976 17.2673 25.733 17.25 25.3468ZM25.9635 30.3223C24.9561 31.052 23.7439 31.4449 22.5 31.4449C21.2561 31.4449 20.0439 31.052 19.0365 30.3223C18.9543 30.2655 18.8842 30.1929 18.8304 30.1087C18.7766 30.0246 18.7402 29.9305 18.7232 29.832C18.7063 29.7335 18.7092 29.6327 18.7318 29.5354C18.7544 29.438 18.7962 29.3462 18.8547 29.2653C18.9133 29.1843 18.9874 29.1159 19.0728 29.064C19.1582 29.0121 19.253 28.9778 19.3519 28.9631C19.4507 28.9483 19.5514 28.9535 19.6482 28.9783C19.745 29.003 19.8359 29.0469 19.9155 29.1073C20.6669 29.6527 21.5715 29.9464 22.5 29.9464C23.4285 29.9464 24.3331 29.6527 25.0845 29.1073C25.1641 29.0469 25.255 29.003 25.3518 28.9783C25.4486 28.9535 25.5493 28.9483 25.6482 28.9631C25.747 28.9778 25.8419 29.0121 25.9272 29.064C26.0126 29.1159 26.0867 29.1843 26.1453 29.2653C26.2039 29.3462 26.2457 29.438 26.2682 29.5354C26.2908 29.6327 26.2937 29.7335 26.2768 29.832C26.2599 29.9305 26.2234 30.0246 26.1696 30.1087C26.1158 30.1929 26.0457 30.2655 25.9635 30.3223ZM26.25 26.8468C25.8522 26.8468 25.4707 26.6887 25.1893 26.4074C24.908 26.1261 24.75 25.7446 24.75 25.3468C24.75 24.9489 24.908 24.5674 25.1893 24.2861C25.4707 24.0048 25.8522 23.8468 26.25 23.8468C26.6478 23.8468 27.0294 24.0048 27.3107 24.2861C27.592 24.5674 27.75 24.9489 27.75 25.3468C27.75 25.7446 27.592 26.1261 27.3107 26.4074C27.0294 26.6887 26.6478 26.8468 26.25 26.8468Z" fill="#EAB721"/>
</g>
</g>
<defs>
<clipPath id="clip0_772_9124">
<rect width="45" height="45" fill="white" transform="translate(0 0.596802)"/>
</clipPath>
<clipPath id="clip1_772_9124">
<rect width="24" height="24" fill="white" transform="translate(10.5 11.0968)"/>
</clipPath>
</defs>
</svg>
