<svg width="45" height="46" viewBox="0 0 45 46" fill="none" xmlns="http://www.w3.org/2000/svg">
<g clip-path="url(#clip0_772_9098)">
<path d="M22.5 45.0695C10.3837 45.0695 0.527344 35.2116 0.527344 23.0968C0.527344 10.982 10.3837 1.12415 22.5 1.12415C34.6148 1.12415 44.4727 10.982 44.4727 23.0968C44.4727 35.2116 34.6148 45.0695 22.5 45.0695Z" fill="#4C4C4C" fill-opacity="0.16"/>
<path d="M31.2885 14.9158C31.2814 14.9019 31.2698 14.891 31.2556 14.885C29.6175 14.1164 27.8888 13.5683 26.1129 13.2544C26.0967 13.2513 26.0801 13.2535 26.0652 13.2607C26.0504 13.2679 26.0381 13.2797 26.0302 13.2944C25.7948 13.7313 25.5812 14.1801 25.39 14.6391C23.4756 14.3419 21.5283 14.3419 19.6139 14.6391C19.4215 14.179 19.2043 13.7301 18.9635 13.2944C18.9553 13.28 18.943 13.2685 18.9282 13.2614C18.9135 13.2542 18.897 13.2518 18.8809 13.2544C17.1047 13.5676 15.3759 14.1158 13.738 14.8851C13.724 14.8912 13.7122 14.9015 13.7042 14.9148C10.4287 19.9174 9.53142 24.7971 9.9716 29.6163C9.97283 29.6281 9.97638 29.6395 9.98203 29.6499C9.98768 29.6603 9.99531 29.6694 10.0045 29.6767C11.9117 31.121 14.0451 32.2234 16.3134 32.937C16.3293 32.9419 16.3464 32.9417 16.3622 32.9363C16.3781 32.931 16.392 32.9209 16.402 32.9073C16.8892 32.2293 17.3209 31.5114 17.6927 30.7609C17.6978 30.7506 17.7007 30.7393 17.7012 30.7278C17.7017 30.7162 17.6999 30.7047 17.6957 30.694C17.6916 30.6832 17.6853 30.6735 17.6772 30.6654C17.6691 30.6574 17.6595 30.6511 17.6489 30.6472C16.9681 30.3808 16.3091 30.0597 15.678 29.6868C15.6665 29.6799 15.6569 29.6703 15.6499 29.6587C15.643 29.6471 15.639 29.6339 15.6382 29.6203C15.6374 29.6067 15.6399 29.5932 15.6454 29.5808C15.651 29.5685 15.6594 29.5577 15.67 29.5495C15.8025 29.448 15.935 29.3424 16.0614 29.2358C16.0727 29.2264 16.0863 29.2203 16.1007 29.2183C16.1151 29.2163 16.1298 29.2185 16.1431 29.2246C20.2779 31.1545 24.7544 31.1545 28.8403 29.2246C28.8537 29.2181 28.8685 29.2156 28.8831 29.2174C28.8978 29.2192 28.9116 29.2253 28.923 29.2348C29.0495 29.3414 29.182 29.448 29.3154 29.5495C29.3261 29.5576 29.3346 29.5683 29.3402 29.5806C29.3459 29.5929 29.3485 29.6065 29.3478 29.62C29.3471 29.6336 29.3431 29.6468 29.3363 29.6585C29.3294 29.6701 29.3199 29.6799 29.3085 29.6868C28.6787 30.0628 28.0191 30.3837 27.3366 30.6462C27.326 30.6503 27.3164 30.6566 27.3084 30.6648C27.3003 30.673 27.2941 30.6829 27.29 30.6937C27.286 30.7045 27.2842 30.7161 27.2848 30.7277C27.2854 30.7393 27.2885 30.7506 27.2936 30.7609C27.6717 31.5073 28.1027 32.2242 28.5833 32.9061C28.5931 32.9201 28.6069 32.9306 28.6228 32.9361C28.6387 32.9416 28.6559 32.9419 28.672 32.9368C30.9443 32.2257 33.0814 31.1232 34.991 29.6767C35.0003 29.6698 35.0081 29.6609 35.0137 29.6506C35.0194 29.6404 35.0229 29.629 35.0239 29.6173C35.5509 24.0458 34.1417 19.2061 31.2885 14.9158ZM18.3102 26.6819C17.0653 26.6819 16.0395 25.5135 16.0395 24.0786C16.0395 22.6437 17.0454 21.4752 18.3102 21.4752C19.5848 21.4752 20.6007 22.6539 20.5808 24.0785C20.5808 25.5135 19.5749 26.6819 18.3102 26.6819ZM26.7054 26.6819C25.4606 26.6819 24.4348 25.5135 24.4348 24.0786C24.4348 22.6437 25.4407 21.4752 26.7054 21.4752C27.9802 21.4752 28.9959 22.6539 28.976 24.0785C28.976 25.5135 27.9802 26.6819 26.7054 26.6819Z" fill="#EAB721"/>
</g>
<defs>
<clipPath id="clip0_772_9098">
<rect width="45" height="45" fill="white" transform="translate(0 0.596802)"/>
</clipPath>
</defs>
</svg>
