<svg width="45" height="46" viewBox="0 0 45 46" fill="none" xmlns="http://www.w3.org/2000/svg">
<g clip-path="url(#clip0_772_9091)">
<path d="M22.5 45.0695C10.3837 45.0695 0.527344 35.2116 0.527344 23.0968C0.527344 10.982 10.3837 1.12415 22.5 1.12415C34.6148 1.12415 44.4727 10.982 44.4727 23.0968C44.4727 35.2116 34.6148 45.0695 22.5 45.0695Z" fill="#4C4C4C" fill-opacity="0.16"/>
<path d="M18.5712 13.3842C18.3287 13.3834 18.0883 13.4307 17.8641 13.5232C17.6398 13.6157 17.4361 13.7516 17.2645 13.9231C17.093 14.0946 16.9571 14.2984 16.8646 14.5226C16.7721 14.7469 16.7249 14.9872 16.7256 15.2298V16.0092H25.905C27.4905 16.0092 28.8006 17.319 28.8006 18.9048V26.2388C28.8006 26.6262 28.7205 26.9985 28.579 27.3379L30.9006 29.6592V24.9342H31.68C31.9225 24.9349 32.1629 24.8877 32.3871 24.7952C32.6114 24.7027 32.8151 24.5667 32.9866 24.3952C33.1582 24.2237 33.2941 24.0199 33.3866 23.7957C33.4791 23.5714 33.5263 23.3311 33.5256 23.0885V15.2295C33.5263 14.987 33.479 14.7467 33.3865 14.5225C33.294 14.2982 33.1581 14.0945 32.9866 13.923C32.815 13.7515 32.6113 13.6156 32.3871 13.5231C32.1628 13.4307 31.9225 13.3834 31.68 13.3842H18.5712ZM13.3212 17.0592C13.0787 17.0584 12.8383 17.1057 12.6141 17.1982C12.3898 17.2907 12.1861 17.4266 12.0145 17.5981C11.843 17.7696 11.7071 17.9734 11.6146 18.1976C11.5221 18.4219 11.4749 18.6622 11.4756 18.9048V26.2388C11.4749 26.4813 11.5222 26.7216 11.6147 26.9459C11.7072 27.1701 11.8431 27.3738 12.0146 27.5453C12.1862 27.7168 12.3899 27.8527 12.6141 27.9452C12.8384 28.0377 13.0787 28.0849 13.3212 28.0842H14.1006V32.8092L18.8256 28.0842H25.905C26.1475 28.0849 26.3879 28.0377 26.6121 27.9452C26.8364 27.8527 27.0401 27.7167 27.2116 27.5452C27.3832 27.3737 27.5191 27.1699 27.6116 26.9457C27.7041 26.7214 27.7513 26.4811 27.7506 26.2385V18.9045C27.7513 18.662 27.704 18.4217 27.6115 18.1975C27.519 17.9732 27.3831 17.7695 27.2116 17.598C27.04 17.4265 26.8363 17.2906 26.6121 17.1981C26.3878 17.1057 26.1475 17.0584 25.905 17.0592H13.321H13.3212ZM15.9381 21.5217C16.2166 21.5217 16.4836 21.6323 16.6806 21.8292C16.8775 22.0261 16.9881 22.2932 16.9881 22.5717C16.9881 22.8501 16.8775 23.1172 16.6806 23.3141C16.4836 23.511 16.2166 23.6217 15.9381 23.6217C15.6596 23.6217 15.3925 23.511 15.1956 23.3141C14.9987 23.1172 14.8881 22.8501 14.8881 22.5717C14.8881 22.2932 14.9987 22.0261 15.1956 21.8292C15.3925 21.6323 15.6596 21.5217 15.9381 21.5217ZM19.6131 21.5217C19.8916 21.5217 20.1586 21.6323 20.3556 21.8292C20.5525 22.0261 20.6631 22.2932 20.6631 22.5717C20.6631 22.8501 20.5525 23.1172 20.3556 23.3141C20.1586 23.511 19.8916 23.6217 19.6131 23.6217C19.3346 23.6217 19.0675 23.511 18.8706 23.3141C18.6737 23.1172 18.5631 22.8501 18.5631 22.5717C18.5631 22.2932 18.6737 22.0261 18.8706 21.8292C19.0675 21.6323 19.3346 21.5217 19.6131 21.5217ZM23.2881 21.5217C23.5666 21.5217 23.8336 21.6323 24.0306 21.8292C24.2275 22.0261 24.3381 22.2932 24.3381 22.5717C24.3381 22.8501 24.2275 23.1172 24.0306 23.3141C23.8336 23.511 23.5666 23.6217 23.2881 23.6217C23.0096 23.6217 22.7425 23.511 22.5456 23.3141C22.3487 23.1172 22.2381 22.8501 22.2381 22.5717C22.2381 22.2932 22.3487 22.0261 22.5456 21.8292C22.7425 21.6323 23.0096 21.5217 23.2881 21.5217Z" fill="#EAB721"/>
</g>
<defs>
<clipPath id="clip0_772_9091">
<rect width="45" height="45" fill="white" transform="translate(0 0.596802)"/>
</clipPath>
</defs>
</svg>
