<svg width="45" height="45" viewBox="0 0 45 45" fill="none" xmlns="http://www.w3.org/2000/svg">
<path d="M22.5 44.0695C10.3837 44.0695 0.527344 34.2116 0.527344 22.0968C0.527344 9.98196 10.3837 0.124146 22.5 0.124146C34.6148 0.124146 44.4727 9.98196 44.4727 22.0968C44.4727 34.2116 34.6148 44.0695 22.5 44.0695Z" fill="#4C4C4C" fill-opacity="0.16"/>
<g clip-path="url(#clip0_772_9112)">
<path d="M18.7399 24.1302L18.3925 29.0162C18.8895 29.0162 19.1048 28.8027 19.3629 28.5463L21.693 26.3194L26.5213 29.8553C27.4068 30.3488 28.0307 30.0889 28.2695 29.0407L31.4388 14.1902L31.4397 14.1893C31.7205 12.8803 30.9663 12.3684 30.1035 12.6895L11.4748 19.8217C10.2034 20.3152 10.2227 21.0239 11.2587 21.345L16.0213 22.8264L27.0839 15.9043C27.6045 15.5595 28.0779 15.7503 27.6885 16.095L18.7399 24.1302Z" fill="#EAB721"/>
</g>
<defs>
<clipPath id="clip0_772_9112">
<rect width="21" height="21" fill="white" transform="translate(10.5 10.8468)"/>
</clipPath>
</defs>
</svg>
