<svg width="45" height="46" viewBox="0 0 45 46" fill="none" xmlns="http://www.w3.org/2000/svg">
<g clip-path="url(#clip0_772_9105)">
<path d="M22.5 45.0695C10.3837 45.0695 0.527344 35.2116 0.527344 23.0968C0.527344 10.982 10.3837 1.12415 22.5 1.12415C34.6148 1.12415 44.4727 10.982 44.4727 23.0968C44.4727 35.2116 34.6148 45.0695 22.5 45.0695Z" fill="#4C4C4C" fill-opacity="0.16"/>
<path d="M25.6303 13.0928C23.3944 13.907 21.9811 16.0051 22.1414 18.3015L22.1949 19.1875L21.3005 19.0792C18.045 18.6629 15.2002 17.2525 12.7842 14.8829L11.603 13.7073L11.3006 14.575C10.6566 16.51 11.0686 18.5547 12.4102 19.93C13.1259 20.6893 12.9642 20.7976 11.7309 20.3462C11.302 20.2014 10.9252 20.0931 10.89 20.1479C10.7649 20.2745 11.1938 21.9198 11.5341 22.5723C11.9995 23.4779 12.9474 24.3625 13.9852 24.8884L14.8627 25.3047L13.8234 25.3201C12.8222 25.3201 12.7856 25.3384 12.8939 25.7195C13.2511 26.8951 14.6644 28.1439 16.2394 28.6867L17.3489 29.0664L16.3828 29.6457C14.9513 30.4797 13.2694 30.9493 11.5875 30.9831C10.7817 31.0014 10.1194 31.0731 10.1194 31.1279C10.1194 31.3079 12.3033 32.3204 13.5717 32.7198C17.3827 33.8954 21.9094 33.3878 25.3083 31.3811C27.7242 29.9523 30.1388 27.1117 31.2666 24.3611C31.8755 22.8972 32.483 20.2197 32.483 18.9357C32.483 18.1032 32.5364 17.995 33.5377 17.0007C34.1283 16.4214 34.6824 15.7886 34.7906 15.6086C34.9706 15.264 34.9509 15.264 34.0397 15.572C32.5195 16.1148 32.3044 16.0431 33.0567 15.2289C33.6108 14.6495 34.2731 13.6004 34.2731 13.2939C34.2731 13.2404 34.0045 13.3304 33.7008 13.4922C33.3788 13.6736 32.663 13.945 32.1258 14.1067L31.1597 14.4147L30.2836 13.8156C29.7999 13.4907 29.122 13.1279 28.7634 13.0197C27.8494 12.7665 26.4544 12.8031 25.6303 13.0928Z" fill="#EAB721"/>
</g>
<defs>
<clipPath id="clip0_772_9105">
<rect width="45" height="45" fill="white" transform="translate(0 0.596802)"/>
</clipPath>
</defs>
</svg>
