<svg width="18" height="19" viewBox="0 0 18 19" fill="none" xmlns="http://www.w3.org/2000/svg">
<path d="M8.99902 17.4619C4.55152 17.4619 0.936523 13.8469 0.936523 9.39941C0.936523 4.95191 4.55152 1.33691 8.99902 1.33691C13.4465 1.33691 17.0615 4.95191 17.0615 9.39941C17.0615 13.8469 13.4465 17.4619 8.99902 17.4619ZM8.99902 2.46191C5.17402 2.46191 2.06152 5.57441 2.06152 9.39941C2.06152 13.2244 5.17402 16.3369 8.99902 16.3369C12.824 16.3369 15.9365 13.2244 15.9365 9.39941C15.9365 5.57441 12.824 2.46191 8.99902 2.46191Z" fill="#EAB721"/>
<path d="M12.8639 6.80908L7.94224 11.8607C7.89937 11.9049 7.84843 11.9399 7.79235 11.9638C7.73627 11.9877 7.67614 12 7.61541 12C7.55468 12 7.49455 11.9877 7.43847 11.9638C7.38239 11.9399 7.33145 11.9049 7.28858 11.8607L5.13538 9.65062C5.09246 9.60657 5.05841 9.55427 5.03518 9.49671C5.01196 9.43915 5 9.37746 5 9.31516C5 9.25286 5.01196 9.19117 5.03518 9.13361C5.05841 9.07605 5.09246 9.02376 5.13538 8.9797C5.1783 8.93565 5.22925 8.9007 5.28532 8.87686C5.3414 8.85302 5.4015 8.84075 5.4622 8.84075C5.5229 8.84075 5.583 8.85302 5.63908 8.87686C5.69516 8.9007 5.74611 8.93565 5.78903 8.9797L7.61579 10.8547L12.211 6.13895C12.2977 6.04998 12.4152 6 12.5378 6C12.6604 6 12.7779 6.04998 12.8646 6.13895C12.9513 6.22792 13 6.34859 13 6.47441C13 6.60023 12.9513 6.7209 12.8646 6.80987L12.8639 6.80908Z" fill="#EAB721"/>
</svg>
