<svg width="45" height="46" viewBox="0 0 45 46" fill="none" xmlns="http://www.w3.org/2000/svg">
<g clip-path="url(#clip0_772_9118)">
<path d="M22.5 45.0695C10.3837 45.0695 0.527344 35.2116 0.527344 23.0968C0.527344 10.982 10.3837 1.12415 22.5 1.12415C34.6148 1.12415 44.4727 10.982 44.4727 23.0968C44.4727 35.2116 34.6148 45.0695 22.5 45.0695Z" fill="#4C4C4C" fill-opacity="0.16"/>
<path d="M33 21.3857V17.1964C31.0604 17.1964 29.5802 16.6727 28.625 15.6549C27.6446 14.4933 27.0954 13.0222 27.0719 11.4951V11.1927L23.1563 11.0968V28.1122C23.0219 28.8546 22.6657 29.5374 22.1355 30.0685C21.6054 30.5996 20.9269 30.9533 20.1917 31.0821C19.4565 31.2108 18.6999 31.1082 18.0242 30.7882C17.3484 30.4682 16.786 29.9462 16.4129 29.2926C16.0397 28.6391 15.8738 27.8855 15.9375 27.1335C16.0012 26.3815 16.2914 25.6674 16.769 25.0876C17.2467 24.5078 17.8887 24.0902 18.6084 23.8911C19.3281 23.6921 20.0909 23.7212 20.7938 23.9745V19.9179C20.384 19.85 19.9694 19.8155 19.5542 19.8147C18.0601 19.8147 16.5996 20.2628 15.3573 21.1024C14.115 21.942 13.1468 23.1354 12.575 24.5316C12.0033 25.9279 11.8537 27.4642 12.1452 28.9464C12.4366 30.4287 13.1561 31.7902 14.2126 32.8588C15.269 33.9274 16.6151 34.6551 18.0804 34.95C19.5458 35.2448 21.0647 35.0935 22.445 34.5152C23.8254 33.9368 25.0052 32.9574 25.8352 31.7009C26.6653 30.4443 27.1083 28.967 27.1083 27.4557C27.1075 27.1426 27.088 26.8298 27.05 26.519V19.7704C28.8305 20.8952 30.902 21.4575 33 21.3857Z" fill="#EAB721"/>
</g>
<defs>
<clipPath id="clip0_772_9118">
<rect width="45" height="45" fill="white" transform="translate(0 0.596802)"/>
</clipPath>
</defs>
</svg>
