<svg width="56" height="56" viewBox="0 0 56 56" fill="none" xmlns="http://www.w3.org/2000/svg">
<rect width="56" height="56" rx="28" fill="#FF8A00" fill-opacity="0.15"/>
<path d="M23.4264 33.36C23.173 33.36 22.9197 33.2667 22.7197 33.0667C22.333 32.68 22.333 32.04 22.7197 31.6534L31.453 22.92C31.8397 22.5334 32.4797 22.5334 32.8663 22.92C33.253 23.3067 33.253 23.9467 32.8663 24.3334L24.133 33.0667C23.933 33.2667 23.6797 33.36 23.4264 33.36Z" fill="#FF8A00"/>
<path d="M23.9734 26.8133C22.52 26.8133 21.3333 25.6267 21.3333 24.1734C21.3333 22.72 22.52 21.5334 23.9734 21.5334C25.4267 21.5334 26.6133 22.72 26.6133 24.1734C26.6133 25.6267 25.4267 26.8133 23.9734 26.8133ZM23.9734 23.5467C23.6267 23.5467 23.3333 23.8267 23.3333 24.1867C23.3333 24.5467 23.6134 24.8267 23.9734 24.8267C24.3334 24.8267 24.6133 24.5467 24.6133 24.1867C24.6133 23.8267 24.32 23.5467 23.9734 23.5467Z" fill="#FF8A00"/>
<path d="M32.6934 34.4533C31.24 34.4533 30.0534 33.2666 30.0534 31.8133C30.0534 30.36 31.24 29.1733 32.6934 29.1733C34.1467 29.1733 35.3334 30.36 35.3334 31.8133C35.3334 33.2666 34.1467 34.4533 32.6934 34.4533ZM32.6934 31.1867C32.3467 31.1867 32.0534 31.4667 32.0534 31.8267C32.0534 32.1867 32.3334 32.4667 32.6934 32.4667C33.0534 32.4667 33.3334 32.1867 33.3334 31.8267C33.3334 31.4667 33.0534 31.1867 32.6934 31.1867Z" fill="#FF8A00"/>
<path d="M28 42.3333C20.0933 42.3333 13.6667 35.9067 13.6667 28C13.6667 20.0933 20.0933 13.6667 28 13.6667C35.9067 13.6667 42.3333 20.0933 42.3333 28C42.3333 35.9067 35.9067 42.3333 28 42.3333ZM28 15.6667C21.2 15.6667 15.6667 21.2 15.6667 28C15.6667 34.8 21.2 40.3333 28 40.3333C34.8 40.3333 40.3333 34.8 40.3333 28C40.3333 21.2 34.8 15.6667 28 15.6667Z" fill="#FF8A00"/>
</svg>
