<svg width="56" height="56" viewBox="0 0 56 56" fill="none" xmlns="http://www.w3.org/2000/svg">
<rect width="56" height="56" rx="28" fill="#FF8A00" fill-opacity="0.15"/>
<g clip-path="url(#clip0_869_190)">
<path opacity="0.2" d="M17.6666 31V38H13.6666C13.4014 38 13.1471 37.8946 12.9595 37.7071C12.772 37.5196 12.6666 37.2652 12.6666 37V32C12.6666 31.7348 12.772 31.4804 12.9595 31.2929C13.1471 31.1054 13.4014 31 13.6666 31H17.6666Z" fill="#FF8A00"/>
<path d="M40.4579 29.6325C40.0859 29.3459 39.6528 29.1491 39.1923 29.0574C38.7317 28.9657 38.2563 28.9816 37.8029 29.1038L32.5729 30.3062C32.6946 29.7922 32.6983 29.2574 32.5839 28.7417C32.4694 28.226 32.2397 27.7429 31.9121 27.3287C31.5844 26.9144 31.1671 26.5796 30.6917 26.3495C30.2162 26.1194 29.6948 25.9999 29.1666 26H22.9091C22.3836 25.9987 21.8631 26.1015 21.3775 26.3025C20.892 26.5036 20.4511 26.7988 20.0804 27.1713L17.2529 30H13.6666C13.1362 30 12.6275 30.2107 12.2524 30.5858C11.8773 30.9609 11.6666 31.4696 11.6666 32V37C11.6666 37.5304 11.8773 38.0391 12.2524 38.4142C12.6275 38.7893 13.1362 39 13.6666 39H26.6666C26.7484 39 26.8298 38.99 26.9091 38.97L34.9091 36.97C34.9601 36.9579 35.0099 36.9411 35.0579 36.92L39.9166 34.8525L39.9716 34.8275C40.4386 34.5942 40.8385 34.2458 41.1336 33.8152C41.4287 33.3846 41.6093 32.886 41.6585 32.3663C41.7076 31.8466 41.6236 31.3229 41.4145 30.8447C41.2053 30.3664 40.8778 29.9492 40.4629 29.6325H40.4579ZM13.6666 32H16.6666V37H13.6666V32ZM39.0954 33.0263L34.3454 35.0487L26.5416 37H18.6666V31.4137L21.4954 28.5863C21.6804 28.3997 21.9007 28.2518 22.1434 28.1512C22.3861 28.0506 22.6464 27.9992 22.9091 28H29.1666C29.5645 28 29.946 28.158 30.2273 28.4393C30.5086 28.7206 30.6666 29.1022 30.6666 29.5C30.6666 29.8978 30.5086 30.2794 30.2273 30.5607C29.946 30.842 29.5645 31 29.1666 31H25.6666C25.4014 31 25.1471 31.1054 24.9595 31.2929C24.772 31.4804 24.6666 31.7348 24.6666 32C24.6666 32.2652 24.772 32.5196 24.9595 32.7071C25.1471 32.8946 25.4014 33 25.6666 33H29.6666C29.7419 32.9998 29.8169 32.9914 29.8904 32.975L38.2654 31.0487L38.3041 31.0387C38.5598 30.9678 38.8327 30.9939 39.0703 31.112C39.3078 31.2301 39.4934 31.4319 39.5911 31.6786C39.6888 31.9253 39.6919 32.1994 39.5997 32.4482C39.5075 32.697 39.3265 32.9029 39.0916 33.0263H39.0954ZM30.9591 21.7075C30.7715 21.5199 30.6661 21.2654 30.6661 21C30.6661 20.7346 30.7715 20.4801 30.9591 20.2925C31.1468 20.1049 31.4013 19.9994 31.6666 19.9994C31.932 19.9994 32.1865 20.1049 32.3741 20.2925L34.6666 22.5863V15C34.6666 14.7348 34.772 14.4804 34.9595 14.2929C35.1471 14.1054 35.4014 14 35.6666 14C35.9318 14 36.1862 14.1054 36.3737 14.2929C36.5613 14.4804 36.6666 14.7348 36.6666 15V22.5863L38.9591 20.2925C39.1468 20.1049 39.4013 19.9994 39.6666 19.9994C39.932 19.9994 40.1865 20.1049 40.3741 20.2925C40.5618 20.4801 40.6672 20.7346 40.6672 21C40.6672 21.2654 40.5618 21.5199 40.3741 21.7075L36.3741 25.7075C36.2813 25.8005 36.171 25.8742 36.0496 25.9246C35.9282 25.9749 35.798 26.0008 35.6666 26.0008C35.5352 26.0008 35.4051 25.9749 35.2837 25.9246C35.1623 25.8742 35.052 25.8005 34.9591 25.7075L30.9591 21.7075Z" fill="#FF8A00"/>
</g>
<defs>
<clipPath id="clip0_869_190">
<rect width="32" height="32" fill="white" transform="translate(11.6666 12)"/>
</clipPath>
</defs>
</svg>
