<svg width="56" height="56" viewBox="0 0 56 56" fill="none" xmlns="http://www.w3.org/2000/svg">
<rect width="56" height="56" rx="28" fill="#FF8A00" fill-opacity="0.15"/>
<path d="M29.8667 35.2267H26.52C24.3333 35.2267 22.56 33.3867 22.56 31.12C22.56 30.5733 23.0133 30.12 23.56 30.12C24.1067 30.12 24.56 30.5733 24.56 31.12C24.56 32.28 25.44 33.2267 26.52 33.2267H29.8667C30.7333 33.2267 31.4533 32.4533 31.4533 31.52C31.4533 30.36 31.04 30.1333 30.36 29.8933L24.9867 28C23.9467 27.64 22.5467 26.8667 22.5467 24.48C22.5467 22.4267 24.16 20.7733 26.1333 20.7733H29.48C31.6667 20.7733 33.44 22.6133 33.44 24.88C33.44 25.4267 32.9867 25.88 32.44 25.88C31.8933 25.88 31.44 25.4267 31.44 24.88C31.44 23.72 30.56 22.7733 29.48 22.7733H26.1333C25.2667 22.7733 24.5467 23.5467 24.5467 24.48C24.5467 25.64 24.96 25.8667 25.64 26.1067L31.0133 28C32.0533 28.36 33.4533 29.1333 33.4533 31.52C33.44 33.56 31.84 35.2267 29.8667 35.2267Z" fill="#FF8A00"/>
<path d="M28 37C27.4533 37 27 36.5467 27 36V20C27 19.4533 27.4533 19 28 19C28.5467 19 29 19.4533 29 20V36C29 36.5467 28.5467 37 28 37Z" fill="#FF8A00"/>
<path d="M28 42.3333C20.0933 42.3333 13.6667 35.9067 13.6667 28C13.6667 20.0933 20.0933 13.6667 28 13.6667C35.9067 13.6667 42.3333 20.0933 42.3333 28C42.3333 35.9067 35.9067 42.3333 28 42.3333ZM28 15.6667C21.2 15.6667 15.6667 21.2 15.6667 28C15.6667 34.8 21.2 40.3333 28 40.3333C34.8 40.3333 40.3333 34.8 40.3333 28C40.3333 21.2 34.8 15.6667 28 15.6667Z" fill="#FF8A00"/>
</svg>
