<svg width="31" height="28" viewBox="0 0 31 28" fill="none" xmlns="http://www.w3.org/2000/svg">
<g clip-path="url(#clip0_1361_31393)">
<path d="M28.6677 0.0297852L16.9072 8.7641L19.0825 3.61081L28.6677 0.0297852Z" fill="#E2761B"/>
<path d="M1.51904 0.0297852L13.185 8.84676L11.1162 3.61081L1.51904 0.0297852Z" fill="#E4761B"/>
<path d="M24.4363 20.2761L21.3042 25.075L28.006 26.9184L29.9327 20.3826L24.4363 20.2761Z" fill="#E4761B"/>
<path d="M0.277832 20.3826L2.19263 26.9184L8.89441 25.075L5.76235 20.2761L0.277832 20.3826Z" fill="#E4761B"/>
<path d="M8.51625 12.1679L6.64844 14.9931L13.3026 15.2887L13.0666 8.13794L8.51625 12.1679Z" fill="#E4761B"/>
<path d="M21.6704 12.1678L17.0612 8.05518L16.9072 15.2886L23.5501 14.993L21.6704 12.1678Z" fill="#E4761B"/>
<path d="M8.89453 25.0749L12.8894 23.1244L9.43805 20.4294L8.89453 25.0749Z" fill="#E4761B"/>
<path d="M17.2974 23.1244L21.3042 25.0749L20.7488 20.4294L17.2974 23.1244Z" fill="#E4761B"/>
<path d="M21.3042 25.075L17.2974 23.1245L17.6167 25.7368L17.581 26.8358L21.3042 25.075Z" fill="#D7C1B3"/>
<path d="M8.89453 25.075L12.6177 26.8358L12.5939 25.7368L12.8894 23.1245L8.89453 25.075Z" fill="#D7C1B3"/>
<path d="M12.6763 18.7044L9.34326 17.7232L11.6951 16.6475L12.6763 18.7044Z" fill="#233447"/>
<path d="M17.5103 18.7044L18.4914 16.6475L20.8552 17.7232L17.5103 18.7044Z" fill="#233447"/>
<path d="M8.89426 25.075L9.46157 20.2761L5.76221 20.3826L8.89426 25.075Z" fill="#CD6116"/>
<path d="M20.7368 20.2761L21.3041 25.075L24.4362 20.3826L20.7368 20.2761Z" fill="#CD6116"/>
<path d="M23.5501 14.9932L16.9072 15.2887L17.5221 18.7044L18.5033 16.6475L20.867 17.7232L23.5501 14.9932Z" fill="#CD6116"/>
<path d="M9.34342 17.7232L11.7072 16.6475L12.6765 18.7044L13.3026 15.2887L6.64844 14.9932L9.34342 17.7232Z" fill="#CD6116"/>
<path d="M6.64844 14.9932L9.43797 20.4295L9.34342 17.7232L6.64844 14.9932Z" fill="#E4751F"/>
<path d="M20.8674 17.7232L20.749 20.4295L23.5504 14.9932L20.8674 17.7232Z" fill="#E4751F"/>
<path d="M13.3024 15.2886L12.6763 18.7043L13.4565 22.7343L13.6337 17.4276L13.3024 15.2886Z" fill="#E4751F"/>
<path d="M16.9071 15.2886L16.5884 17.4157L16.7299 22.7343L17.522 18.7043L16.9071 15.2886Z" fill="#E4751F"/>
<path d="M17.5221 18.7043L16.73 22.7343L17.2973 23.1244L20.7487 20.4294L20.867 17.7231L17.5221 18.7043Z" fill="#F6851B"/>
<path d="M9.34326 17.7231L9.43781 20.4294L12.8892 23.1244L13.4565 22.7343L12.6763 18.7043L9.34326 17.7231Z" fill="#F6851B"/>
<path d="M17.5813 26.8357L17.617 25.7368L17.3214 25.4763H12.8656L12.5939 25.7368L12.6177 26.8357L8.89453 25.075L10.1944 26.1382L12.83 27.9703H17.3571L20.0045 26.1382L21.3044 25.075L17.5813 26.8357Z" fill="#C0AD9E"/>
<path d="M17.2975 23.1245L16.7302 22.7344H13.4566L12.8893 23.1245L12.5938 25.7368L12.8655 25.4763H17.3213L17.6168 25.7368L17.2975 23.1245Z" fill="#161616"/>
<path d="M29.1643 9.3314L30.1687 4.50933L28.6678 0.0297852L17.2974 8.46856L21.6705 12.1679L27.8519 13.9763L29.2232 12.3808L28.6321 11.9556L29.5776 11.0928L28.845 10.5255L29.7905 9.80416L29.1643 9.3314Z" fill="#763D16"/>
<path d="M0.0297852 4.50933L1.03416 9.3314L0.396094 9.80416L1.3416 10.5255L0.620874 11.0928L1.56638 11.9556L0.975289 12.3808L2.33467 13.9763L8.51613 12.1679L12.8892 8.46856L1.51881 0.0297852L0.0297852 4.50933Z" fill="#763D16"/>
<path d="M27.8522 13.9763L21.6707 12.168L23.5504 14.9932L20.749 20.4295L24.4365 20.3826H29.9329L27.8522 13.9763Z" fill="#F6851B"/>
<path d="M8.51621 12.168L2.33475 13.9763L0.277832 20.3826H5.76235L9.43792 20.4295L6.64839 14.9932L8.51621 12.168Z" fill="#F6851B"/>
<path d="M16.9071 15.2887L17.2972 8.46859L19.0942 3.61084H11.1157L12.889 8.46859L13.3023 15.2887L13.4444 17.4396L13.4563 22.7344H16.7299L16.7537 17.4396L16.9071 15.2887Z" fill="#F6851B"/>
</g>
<defs>
<clipPath id="clip0_1361_31393">
<rect width="30.1984" height="28" fill="white"/>
</clipPath>
</defs>
</svg>
