<svg width="56" height="56" viewBox="0 0 56 56" fill="none" xmlns="http://www.w3.org/2000/svg">
<rect width="56" height="56" rx="28" fill="#FF8A00" fill-opacity="0.15"/>
<g clip-path="url(#clip0_850_254)">
<path opacity="0.2" d="M29.3334 26C29.3334 27.2856 28.9522 28.5423 28.2379 29.6112C27.5237 30.6801 26.5085 31.5132 25.3208 32.0052C24.1331 32.4972 22.8262 32.6259 21.5653 32.3751C20.3044 32.1243 19.1462 31.5052 18.2372 30.5962C17.3281 29.6872 16.7091 28.529 16.4583 27.2681C16.2075 26.0072 16.3362 24.7003 16.8282 23.5126C17.3201 22.3248 18.1533 21.3097 19.2222 20.5954C20.2911 19.8812 21.5478 19.5 22.8334 19.5C24.5573 19.5 26.2106 20.1848 27.4296 21.4038C28.6486 22.6228 29.3334 24.2761 29.3334 26Z" fill="#FF8A00"/>
<path d="M26.9896 32.24C28.3299 31.3477 29.3474 30.0478 29.8918 28.5326C30.4361 27.0173 30.4783 25.367 30.0123 23.8259C29.5462 22.2847 28.5965 20.9345 27.3037 19.9748C26.0108 19.0151 24.4435 18.4969 22.8334 18.4969C21.2233 18.4969 19.6559 19.0151 18.3631 19.9748C17.0703 20.9345 16.1206 22.2847 15.6545 23.8259C15.1884 25.367 15.2307 27.0173 15.775 28.5326C16.3193 30.0478 17.3369 31.3477 18.6771 32.24C16.2527 33.1335 14.1823 34.787 12.7746 36.9537C12.7006 37.0637 12.6493 37.1873 12.6235 37.3172C12.5976 37.4472 12.5979 37.5811 12.6243 37.7109C12.6507 37.8408 12.7026 37.9641 12.777 38.0738C12.8515 38.1834 12.947 38.2772 13.058 38.3496C13.169 38.422 13.2933 38.4716 13.4236 38.4955C13.554 38.5195 13.6878 38.5173 13.8173 38.489C13.9468 38.4608 14.0693 38.4071 14.1779 38.3311C14.2865 38.2551 14.3788 38.1583 14.4496 38.0462C15.3576 36.6497 16.6001 35.5021 18.0642 34.7077C19.5283 33.9133 21.1676 33.4972 22.8334 33.4972C24.4991 33.4972 26.1385 33.9133 27.6026 34.7077C29.0667 35.5021 30.3091 36.6497 31.2171 38.0462C31.3638 38.2642 31.5904 38.4157 31.8478 38.468C32.1053 38.5203 32.3731 38.4691 32.5931 38.3256C32.8132 38.1821 32.9679 37.9577 33.0239 37.701C33.0798 37.4443 33.0325 37.1758 32.8921 36.9537C31.4845 34.787 29.414 33.1335 26.9896 32.24ZM17.3334 26C17.3334 24.9122 17.6559 23.8488 18.2603 22.9444C18.8646 22.0399 19.7236 21.3349 20.7286 20.9187C21.7336 20.5024 22.8395 20.3935 23.9064 20.6057C24.9733 20.8179 25.9533 21.3417 26.7225 22.1109C27.4917 22.8801 28.0155 23.8601 28.2277 24.927C28.4399 25.9939 28.331 27.0998 27.9147 28.1048C27.4984 29.1097 26.7935 29.9687 25.889 30.5731C24.9845 31.1774 23.9212 31.5 22.8334 31.5C21.3752 31.4983 19.9772 30.9183 18.9461 29.8873C17.915 28.8562 17.335 27.4582 17.3334 26ZM43.6009 38.3375C43.3787 38.4823 43.1082 38.533 42.8487 38.4784C42.5892 38.4238 42.362 38.2683 42.2171 38.0462C41.3102 36.6489 40.0679 35.5008 38.6035 34.7067C37.1391 33.9126 35.4992 33.4978 33.8334 33.5C33.5682 33.5 33.3138 33.3946 33.1263 33.2071C32.9387 33.0196 32.8334 32.7652 32.8334 32.5C32.8334 32.2348 32.9387 31.9804 33.1263 31.7929C33.3138 31.6053 33.5682 31.5 33.8334 31.5C34.6433 31.4992 35.4431 31.3196 36.1756 30.9739C36.9081 30.6282 37.5552 30.125 38.0707 29.5002C38.5861 28.8754 38.9572 28.1445 39.1575 27.3597C39.3577 26.5749 39.3821 25.7555 39.229 24.9602C39.0759 24.1648 38.749 23.4131 38.2716 22.7587C37.7943 22.1044 37.1784 21.5635 36.4678 21.1748C35.7572 20.7861 34.9695 20.5591 34.161 20.5101C33.3525 20.4611 32.5432 20.5912 31.7909 20.8912C31.6682 20.9443 31.5362 20.9722 31.4025 20.9733C31.2689 20.9744 31.1364 20.9488 31.0128 20.8978C30.8893 20.8469 30.7772 20.7717 30.6832 20.6767C30.5892 20.5817 30.5152 20.4688 30.4656 20.3447C30.416 20.2206 30.3917 20.0879 30.3943 19.9543C30.3968 19.8207 30.4261 19.6889 30.4804 19.5668C30.5348 19.4447 30.613 19.3347 30.7106 19.2434C30.8081 19.1521 30.923 19.0812 31.0484 19.035C32.7702 18.3483 34.6853 18.3236 36.4243 18.9656C38.1633 19.6077 39.6029 20.8709 40.4654 22.5118C41.3279 24.1526 41.5522 26.0547 41.095 27.8511C40.6378 29.6476 39.5316 31.2111 37.9896 32.24C40.414 33.1335 42.4845 34.787 43.8921 36.9537C44.037 37.1759 44.0877 37.4464 44.033 37.7059C43.9784 37.9654 43.823 38.1926 43.6009 38.3375Z" fill="#FF8A00"/>
</g>
<defs>
<clipPath id="clip0_850_254">
<rect width="32" height="32" fill="white" transform="translate(12.3334 12.5)"/>
</clipPath>
</defs>
</svg>
