<svg width="56" height="56" viewBox="0 0 56 56" fill="none" xmlns="http://www.w3.org/2000/svg">
<rect width="56" height="56" rx="28" fill="#FFEEDB"/>
<path opacity="0.2" d="M32 28C32 28.7911 31.7654 29.5645 31.3259 30.2223C30.8864 30.8801 30.2616 31.3928 29.5307 31.6955C28.7998 31.9983 27.9956 32.0775 27.2196 31.9231C26.4437 31.7688 25.731 31.3878 25.1716 30.8284C24.6122 30.269 24.2312 29.5563 24.0769 28.7804C23.9225 28.0044 24.0017 27.2002 24.3045 26.4693C24.6072 25.7384 25.1199 25.1136 25.7777 24.6741C26.4355 24.2346 27.2089 24 28 24C29.0609 24 30.0783 24.4214 30.8284 25.1716C31.5786 25.9217 32 26.9391 32 28ZM37 20C37.2117 21.2491 37.8067 22.4015 38.7026 23.2974C39.5985 24.1933 40.7509 24.7883 42 25V20H37ZM37 36H42V31C40.7509 31.2117 39.5985 31.8067 38.7026 32.7026C37.8067 33.5985 37.2117 34.7509 37 36ZM14 31V36H19C18.7883 34.7509 18.1933 33.5985 17.2974 32.7026C16.4015 31.8067 15.2491 31.2117 14 31ZM14 25C15.2491 24.7883 16.4015 24.1933 17.2974 23.2974C18.1933 22.4015 18.7883 21.2491 19 20H14V25Z" fill="#FF8A00"/>
<path d="M28 23C27.0111 23 26.0444 23.2932 25.2221 23.8427C24.3999 24.3921 23.759 25.173 23.3806 26.0866C23.0022 27.0002 22.9031 28.0055 23.0961 28.9755C23.289 29.9454 23.7652 30.8363 24.4645 31.5355C25.1637 32.2348 26.0546 32.711 27.0245 32.9039C27.9945 33.0969 28.9998 32.9978 29.9134 32.6194C30.827 32.241 31.6079 31.6001 32.1573 30.7779C32.7068 29.9556 33 28.9889 33 28C33 26.6739 32.4732 25.4021 31.5355 24.4645C30.5979 23.5268 29.3261 23 28 23ZM28 31C27.4067 31 26.8266 30.8241 26.3333 30.4944C25.8399 30.1648 25.4554 29.6962 25.2284 29.1481C25.0013 28.5999 24.9419 27.9967 25.0576 27.4147C25.1734 26.8328 25.4591 26.2982 25.8787 25.8787C26.2982 25.4591 26.8328 25.1734 27.4147 25.0576C27.9967 24.9419 28.5999 25.0013 29.1481 25.2284C29.6962 25.4554 30.1648 25.8399 30.4944 26.3333C30.8241 26.8266 31 27.4067 31 28C31 28.7956 30.6839 29.5587 30.1213 30.1213C29.5587 30.6839 28.7956 31 28 31ZM42 19H14C13.7348 19 13.4804 19.1054 13.2929 19.2929C13.1054 19.4804 13 19.7348 13 20V36C13 36.2652 13.1054 36.5196 13.2929 36.7071C13.4804 36.8946 13.7348 37 14 37H42C42.2652 37 42.5196 36.8946 42.7071 36.7071C42.8946 36.5196 43 36.2652 43 36V20C43 19.7348 42.8946 19.4804 42.7071 19.2929C42.5196 19.1054 42.2652 19 42 19ZM15 21H17.6712C17.1555 22.1995 16.1995 23.1555 15 23.6713V21ZM15 35V32.3288C16.1995 32.8445 17.1555 33.8005 17.6712 35H15ZM41 35H38.3288C38.8445 33.8005 39.8005 32.8445 41 32.3288V35ZM41 30.2062C39.8645 30.542 38.8311 31.1565 37.9938 31.9938C37.1565 32.8311 36.542 33.8645 36.2062 35H19.7937C19.458 33.8645 18.8435 32.8311 18.0062 31.9938C17.1689 31.1565 16.1355 30.542 15 30.2062V25.7937C16.1355 25.458 17.1689 24.8435 18.0062 24.0062C18.8435 23.1689 19.458 22.1355 19.7937 21H36.2062C36.542 22.1355 37.1565 23.1689 37.9938 24.0062C38.8311 24.8435 39.8645 25.458 41 25.7937V30.2062ZM41 23.6713C39.8005 23.1555 38.8445 22.1995 38.3288 21H41V23.6713Z" fill="#FF8A00"/>
</svg>
