<svg width="56" height="56" viewBox="0 0 56 56" fill="none" xmlns="http://www.w3.org/2000/svg">
<rect width="56" height="56" rx="28" fill="#FFEEDB"/>
<path opacity="0.2" d="M42.041 31.125L31.4585 41.7075C31.271 41.8949 31.0167 42.0002 30.7516 42.0002C30.4865 42.0002 30.2323 41.8949 30.0447 41.7075L17.626 29.2925C17.4388 29.1051 17.3336 28.8511 17.3335 28.5863V17H28.9197C29.1846 17.0001 29.4386 17.1053 29.626 17.2925L42.041 29.7075C42.1343 29.8004 42.2084 29.9109 42.259 30.0325C42.3095 30.1541 42.3355 30.2845 42.3355 30.4163C42.3355 30.548 42.3095 30.6784 42.259 30.8C42.2084 30.9216 42.1343 31.0321 42.041 31.125Z" fill="#FF8A00"/>
<path d="M42.7473 29L30.3335 16.5863C30.1485 16.3997 29.9282 16.2519 29.6855 16.1512C29.4428 16.0506 29.1825 15.9992 28.9198 16H17.3335C17.0683 16 16.8139 16.1054 16.6264 16.2929C16.4389 16.4804 16.3335 16.7348 16.3335 17V28.5863C16.3327 28.849 16.3841 29.1093 16.4847 29.352C16.5853 29.5947 16.7332 29.815 16.9198 30L29.3335 42.4138C29.5192 42.5995 29.7397 42.7469 29.9824 42.8474C30.2251 42.948 30.4852 42.9997 30.7479 42.9997C31.0106 42.9997 31.2707 42.948 31.5134 42.8474C31.756 42.7469 31.9765 42.5995 32.1623 42.4138L42.7473 31.8288C42.933 31.643 43.0804 31.4225 43.1809 31.1799C43.2815 30.9372 43.3332 30.6771 43.3332 30.4144C43.3332 30.1517 43.2815 29.8916 43.1809 29.6489C43.0804 29.4062 42.933 29.1857 42.7473 29ZM30.7473 41L18.3335 28.5863V18H28.9198L41.3335 30.4138L30.7473 41ZM24.3335 22.5C24.3335 22.7967 24.2455 23.0867 24.0807 23.3334C23.9159 23.58 23.6816 23.7723 23.4075 23.8858C23.1334 23.9994 22.8318 24.0291 22.5409 23.9712C22.2499 23.9133 21.9826 23.7704 21.7728 23.5607C21.5631 23.3509 21.4202 23.0836 21.3623 22.7926C21.3045 22.5017 21.3342 22.2001 21.4477 21.926C21.5612 21.6519 21.7535 21.4176 22.0002 21.2528C22.2468 21.088 22.5368 21 22.8335 21C23.2313 21 23.6129 21.158 23.8942 21.4393C24.1755 21.7207 24.3335 22.1022 24.3335 22.5Z" fill="#FF8A00"/>
</svg>
