<svg width="56" height="56" viewBox="0 0 56 56" fill="none" xmlns="http://www.w3.org/2000/svg">
<rect width="56" height="56" rx="28" fill="#FFEEDB"/>
<path opacity="0.2" d="M23 20L36 20L36 33L23 20Z" fill="#FF8A00"/>
<path d="M19.2925 36.7074C19.3854 36.8004 19.4957 36.8742 19.6171 36.9245C19.7385 36.9748 19.8686 37.0007 20 37.0007C20.1314 37.0007 20.2615 36.9748 20.3829 36.9245C20.5043 36.8742 20.6146 36.8004 20.7075 36.7074L29.5 27.9137L35.2925 33.7074C35.4324 33.8475 35.6106 33.9428 35.8047 33.9815C35.9988 34.0201 36.2 34.0003 36.3828 33.9246C36.5656 33.8488 36.7218 33.7205 36.8317 33.5559C36.9416 33.3913 37.0002 33.1978 37 32.9999L37 19.9999C37 19.7347 36.8946 19.4804 36.7071 19.2928C36.5196 19.1053 36.2652 18.9999 36 18.9999L23 18.9999C22.8021 18.9998 22.6086 19.0584 22.444 19.1682C22.2794 19.2781 22.1511 19.4343 22.0754 19.6172C21.9996 19.8 21.9798 20.0012 22.0185 20.1953C22.0571 20.3893 22.1525 20.5676 22.2925 20.7074L28.0863 26.4999L19.2925 35.2924C19.1995 35.3853 19.1258 35.4956 19.0754 35.617C19.0251 35.7384 18.9992 35.8685 18.9992 35.9999C18.9992 36.1314 19.0251 36.2615 19.0754 36.3829C19.1258 36.5043 19.1995 36.6146 19.2925 36.7074ZM35 20.9999L35 30.5862L30.2075 25.7937L25.4138 20.9999L35 20.9999Z" fill="#FF8A00"/>
</svg>
