<svg width="56" height="56" viewBox="0 0 56 56" fill="none" xmlns="http://www.w3.org/2000/svg">
<rect width="56" height="56" rx="28" fill="#FF8A00" fill-opacity="0.3"/>
<g clip-path="url(#clip0_818_839)">
<path opacity="0.2" d="M29.3334 25.5C29.3334 26.7856 28.9522 28.0423 28.2379 29.1112C27.5237 30.1801 26.5085 31.0132 25.3208 31.5052C24.1331 31.9972 22.8262 32.1259 21.5653 31.8751C20.3044 31.6243 19.1462 31.0052 18.2372 30.0962C17.3281 29.1872 16.7091 28.029 16.4583 26.7681C16.2075 25.5072 16.3362 24.2003 16.8282 23.0126C17.3201 21.8248 18.1533 20.8097 19.2222 20.0954C20.2911 19.3812 21.5478 19 22.8334 19C24.5573 19 26.2106 19.6848 27.4296 20.9038C28.6486 22.1228 29.3334 23.7761 29.3334 25.5Z" fill="#FF8A00"/>
<path d="M26.9896 31.74C28.3299 30.8477 29.3474 29.5478 29.8918 28.0326C30.4361 26.5173 30.4783 24.867 30.0123 23.3259C29.5462 21.7847 28.5965 20.4345 27.3037 19.4748C26.0108 18.5151 24.4435 17.9969 22.8334 17.9969C21.2233 17.9969 19.6559 18.5151 18.3631 19.4748C17.0703 20.4345 16.1206 21.7847 15.6545 23.3259C15.1884 24.867 15.2307 26.5173 15.775 28.0326C16.3193 29.5478 17.3369 30.8477 18.6771 31.74C16.2527 32.6335 14.1823 34.287 12.7746 36.4537C12.7006 36.5637 12.6493 36.6873 12.6235 36.8172C12.5976 36.9472 12.5979 37.0811 12.6243 37.2109C12.6507 37.3408 12.7026 37.4641 12.777 37.5738C12.8515 37.6834 12.947 37.7772 13.058 37.8496C13.169 37.922 13.2933 37.9716 13.4236 37.9955C13.554 38.0195 13.6878 38.0173 13.8173 37.989C13.9468 37.9608 14.0693 37.9071 14.1779 37.8311C14.2865 37.7551 14.3788 37.6583 14.4496 37.5462C15.3576 36.1497 16.6001 35.0021 18.0642 34.2077C19.5283 33.4133 21.1676 32.9972 22.8334 32.9972C24.4991 32.9972 26.1385 33.4133 27.6026 34.2077C29.0667 35.0021 30.3091 36.1497 31.2171 37.5462C31.3638 37.7642 31.5904 37.9157 31.8478 37.968C32.1053 38.0203 32.3731 37.9691 32.5931 37.8256C32.8132 37.6821 32.9679 37.4577 33.0239 37.201C33.0798 36.9443 33.0325 36.6758 32.8921 36.4537C31.4845 34.287 29.414 32.6335 26.9896 31.74ZM17.3334 25.5C17.3334 24.4122 17.6559 23.3488 18.2603 22.4444C18.8646 21.5399 19.7236 20.8349 20.7286 20.4187C21.7336 20.0024 22.8395 19.8935 23.9064 20.1057C24.9733 20.3179 25.9533 20.8417 26.7225 21.6109C27.4917 22.3801 28.0155 23.3601 28.2277 24.427C28.4399 25.4939 28.331 26.5998 27.9147 27.6048C27.4984 28.6097 26.7935 29.4687 25.889 30.0731C24.9845 30.6774 23.9212 31 22.8334 31C21.3752 30.9983 19.9772 30.4183 18.9461 29.3873C17.915 28.3562 17.335 26.9582 17.3334 25.5ZM43.6009 37.8375C43.3787 37.9823 43.1082 38.033 42.8487 37.9784C42.5892 37.9238 42.362 37.7683 42.2171 37.5462C41.3102 36.1489 40.0679 35.0008 38.6035 34.2067C37.1391 33.4126 35.4992 32.9978 33.8334 33C33.5682 33 33.3138 32.8946 33.1263 32.7071C32.9387 32.5196 32.8334 32.2652 32.8334 32C32.8334 31.7348 32.9387 31.4804 33.1263 31.2929C33.3138 31.1053 33.5682 31 33.8334 31C34.6433 30.9992 35.4431 30.8196 36.1756 30.4739C36.9081 30.1282 37.5552 29.625 38.0707 29.0002C38.5861 28.3754 38.9572 27.6445 39.1575 26.8597C39.3577 26.0749 39.3821 25.2555 39.229 24.4602C39.0759 23.6648 38.749 22.9131 38.2716 22.2587C37.7943 21.6044 37.1784 21.0635 36.4678 20.6748C35.7572 20.2861 34.9695 20.0591 34.161 20.0101C33.3525 19.9611 32.5432 20.0912 31.7909 20.3912C31.6682 20.4443 31.5362 20.4722 31.4025 20.4733C31.2689 20.4744 31.1364 20.4488 31.0128 20.3978C30.8893 20.3469 30.7772 20.2717 30.6832 20.1767C30.5892 20.0817 30.5152 19.9688 30.4656 19.8447C30.416 19.7206 30.3917 19.5879 30.3943 19.4543C30.3968 19.3207 30.4261 19.1889 30.4804 19.0668C30.5348 18.9447 30.613 18.8347 30.7106 18.7434C30.8081 18.6521 30.923 18.5812 31.0484 18.535C32.7702 17.8483 34.6853 17.8236 36.4243 18.4656C38.1633 19.1077 39.6029 20.3709 40.4654 22.0118C41.3279 23.6526 41.5522 25.5547 41.095 27.3511C40.6378 29.1476 39.5316 30.7111 37.9896 31.74C40.414 32.6335 42.4845 34.287 43.8921 36.4537C44.037 36.6759 44.0877 36.9464 44.033 37.2059C43.9784 37.4654 43.823 37.6926 43.6009 37.8375Z" fill="#FF8A00"/>
</g>
<defs>
<clipPath id="clip0_818_839">
<rect width="32" height="32" fill="white" transform="translate(12.3334 12)"/>
</clipPath>
</defs>
</svg>
