<svg width="57" height="57" viewBox="0 0 57 57" fill="none" xmlns="http://www.w3.org/2000/svg">
<rect x="0.666504" y="0.5" width="56" height="56" rx="28" fill="#FFEEDB"/>
<path opacity="0.2" d="M40 19.5V27.5H33V19.5H40ZM18 38.5C18 38.7652 18.1054 39.0196 18.2929 39.2071C18.4804 39.3946 18.7348 39.5 19 39.5H24C24.2652 39.5 24.5196 39.3946 24.7071 39.2071C24.8946 39.0196 25 38.7652 25 38.5V27.5H18V38.5Z" fill="#FF8A00"/>
<path d="M40 18.5H18C17.7348 18.5 17.4804 18.6054 17.2929 18.7929C17.1054 18.9804 17 19.2348 17 19.5V38.5C17 39.0304 17.2107 39.5391 17.5858 39.9142C17.9609 40.2893 18.4696 40.5 19 40.5H24C24.5304 40.5 25.0391 40.2893 25.4142 39.9142C25.7893 39.5391 26 39.0304 26 38.5V32.5H32V34.5C32 35.0304 32.2107 35.5391 32.5858 35.9142C32.9609 36.2893 33.4696 36.5 34 36.5H39C39.5304 36.5 40.0391 36.2893 40.4142 35.9142C40.7893 35.5391 41 35.0304 41 34.5V19.5C41 19.2348 40.8946 18.9804 40.7071 18.7929C40.5196 18.6054 40.2652 18.5 40 18.5ZM39 26.5H34V20.5H39V26.5ZM24 20.5V26.5H19V20.5H24ZM24 38.5H19V28.5H24V38.5ZM26 30.5V20.5H32V30.5H26ZM34 34.5V28.5H39V34.5H34Z" fill="#FF8A00"/>
</svg>
