<svg width="57" height="57" viewBox="0 0 57 57" fill="none" xmlns="http://www.w3.org/2000/svg">
<rect x="0.666504" y="0.5" width="56" height="56" rx="28" fill="#FFEEDB"/>
<path opacity="0.2" d="M42.7075 31.625L32.125 42.2075C31.9375 42.3949 31.6832 42.5002 31.4181 42.5002C31.153 42.5002 30.8988 42.3949 30.7113 42.2075L18.2925 29.7925C18.1053 29.6051 18.0001 29.3511 18 29.0863V17.5H29.5863C29.8511 17.5001 30.1051 17.6053 30.2925 17.7925L42.7075 30.2075C42.8009 30.3004 42.8749 30.4109 42.9255 30.5325C42.976 30.6541 43.002 30.7845 43.002 30.9163C43.002 31.048 42.976 31.1784 42.9255 31.3C42.8749 31.4216 42.8009 31.5321 42.7075 31.625Z" fill="#FF8A00"/>
<path d="M43.4138 29.5L31 17.0863C30.815 16.8997 30.5947 16.7519 30.352 16.6512C30.1093 16.5506 29.849 16.4992 29.5863 16.5H18C17.7348 16.5 17.4804 16.6054 17.2929 16.7929C17.1054 16.9804 17 17.2348 17 17.5V29.0863C16.9992 29.349 17.0506 29.6093 17.1512 29.852C17.2519 30.0947 17.3997 30.315 17.5863 30.5L30 42.9138C30.1857 43.0995 30.4062 43.2469 30.6489 43.3474C30.8916 43.448 31.1517 43.4997 31.4144 43.4997C31.6771 43.4997 31.9372 43.448 32.1799 43.3474C32.4225 43.2469 32.643 43.0995 32.8288 42.9138L43.4138 32.3288C43.5995 32.143 43.7469 31.9225 43.8474 31.6799C43.948 31.4372 43.9997 31.1771 43.9997 30.9144C43.9997 30.6517 43.948 30.3916 43.8474 30.1489C43.7469 29.9062 43.5995 29.6857 43.4138 29.5ZM31.4138 41.5L19 29.0863V18.5H29.5863L42 30.9138L31.4138 41.5ZM25 23C25 23.2967 24.912 23.5867 24.7472 23.8334C24.5824 24.08 24.3481 24.2723 24.074 24.3858C23.7999 24.4994 23.4983 24.5291 23.2074 24.4712C22.9164 24.4133 22.6491 24.2704 22.4393 24.0607C22.2296 23.8509 22.0867 23.5836 22.0288 23.2926C21.971 23.0017 22.0007 22.7001 22.1142 22.426C22.2277 22.1519 22.42 21.9176 22.6667 21.7528C22.9133 21.588 23.2033 21.5 23.5 21.5C23.8978 21.5 24.2794 21.658 24.5607 21.9393C24.842 22.2207 25 22.6022 25 23Z" fill="#FF8A00"/>
</svg>
