<svg width="57" height="56" viewBox="0 0 57 56" fill="none" xmlns="http://www.w3.org/2000/svg">
<rect x="0.25" width="56" height="56" rx="28" fill="#FF8A00" fill-opacity="0.15"/>
<path d="M23.6764 33.36C23.423 33.36 23.1697 33.2667 22.9697 33.0667C22.583 32.68 22.583 32.04 22.9697 31.6534L31.703 22.92C32.0897 22.5334 32.7297 22.5334 33.1163 22.92C33.503 23.3067 33.503 23.9467 33.1163 24.3334L24.383 33.0667C24.183 33.2667 23.9297 33.36 23.6764 33.36Z" fill="#FF8A00"/>
<path d="M24.2234 26.8133C22.7701 26.8133 21.5834 25.6267 21.5834 24.1734C21.5834 22.72 22.7701 21.5334 24.2234 21.5334C25.6767 21.5334 26.8634 22.72 26.8634 24.1734C26.8634 25.6267 25.6767 26.8133 24.2234 26.8133ZM24.2234 23.5467C23.8767 23.5467 23.5834 23.8267 23.5834 24.1867C23.5834 24.5467 23.8634 24.8267 24.2234 24.8267C24.5834 24.8267 24.8634 24.5467 24.8634 24.1867C24.8634 23.8267 24.5701 23.5467 24.2234 23.5467Z" fill="#FF8A00"/>
<path d="M32.9433 34.4533C31.49 34.4533 30.3033 33.2666 30.3033 31.8133C30.3033 30.36 31.49 29.1733 32.9433 29.1733C34.3967 29.1733 35.5833 30.36 35.5833 31.8133C35.5833 33.2666 34.3967 34.4533 32.9433 34.4533ZM32.9433 31.1867C32.5967 31.1867 32.3033 31.4667 32.3033 31.8267C32.3033 32.1867 32.5833 32.4667 32.9433 32.4667C33.3033 32.4667 33.5833 32.1867 33.5833 31.8267C33.5833 31.4667 33.3033 31.1867 32.9433 31.1867Z" fill="#FF8A00"/>
<path d="M28.25 42.3333C20.3433 42.3333 13.9166 35.9067 13.9166 28C13.9166 20.0933 20.3433 13.6667 28.25 13.6667C36.1566 13.6667 42.5833 20.0933 42.5833 28C42.5833 35.9067 36.1566 42.3333 28.25 42.3333ZM28.25 15.6667C21.45 15.6667 15.9166 21.2 15.9166 28C15.9166 34.8 21.45 40.3333 28.25 40.3333C35.05 40.3333 40.5833 34.8 40.5833 28C40.5833 21.2 35.05 15.6667 28.25 15.6667Z" fill="#FF8A00"/>
</svg>
