<svg width="56" height="56" viewBox="0 0 56 56" fill="none" xmlns="http://www.w3.org/2000/svg">
<rect width="56" height="56" rx="28" fill="#FF8A00" fill-opacity="0.15"/>
<path opacity="0.2" d="M39 18V22C39 22.2652 38.8946 22.5196 38.7071 22.7071C38.5196 22.8946 38.2652 23 38 23H34C33.7348 23 33.4804 22.8946 33.2929 22.7071C33.1054 22.5196 33 22.2652 33 22V18C33 17.7348 33.1054 17.4804 33.2929 17.2929C33.4804 17.1054 33.7348 17 34 17H38C38.2652 17 38.5196 17.1054 38.7071 17.2929C38.8946 17.4804 39 17.7348 39 18ZM22 17H18C17.7348 17 17.4804 17.1054 17.2929 17.2929C17.1054 17.4804 17 17.7348 17 18V22C17 22.2652 17.1054 22.5196 17.2929 22.7071C17.4804 22.8946 17.7348 23 18 23H22C22.2652 23 22.5196 22.8946 22.7071 22.7071C22.8946 22.5196 23 22.2652 23 22V18C23 17.7348 22.8946 17.4804 22.7071 17.2929C22.5196 17.1054 22.2652 17 22 17ZM38 33H34C33.7348 33 33.4804 33.1054 33.2929 33.2929C33.1054 33.4804 33 33.7348 33 34V38C33 38.2652 33.1054 38.5196 33.2929 38.7071C33.4804 38.8946 33.7348 39 34 39H38C38.2652 39 38.5196 38.8946 38.7071 38.7071C38.8946 38.5196 39 38.2652 39 38V34C39 33.7348 38.8946 33.4804 38.7071 33.2929C38.5196 33.1054 38.2652 33 38 33ZM22 33H18C17.7348 33 17.4804 33.1054 17.2929 33.2929C17.1054 33.4804 17 33.7348 17 34V38C17 38.2652 17.1054 38.5196 17.2929 38.7071C17.4804 38.8946 17.7348 39 18 39H22C22.2652 39 22.5196 38.8946 22.7071 38.7071C22.8946 38.5196 23 38.2652 23 38V34C23 33.7348 22.8946 33.4804 22.7071 33.2929C22.5196 33.1054 22.2652 33 22 33Z" fill="#FF8A00"/>
<path d="M38 24C38.5304 24 39.0391 23.7893 39.4142 23.4142C39.7893 23.0391 40 22.5304 40 22V18C40 17.4696 39.7893 16.9609 39.4142 16.5858C39.0391 16.2107 38.5304 16 38 16H34C33.4696 16 32.9609 16.2107 32.5858 16.5858C32.2107 16.9609 32 17.4696 32 18V19H24V18C24 17.4696 23.7893 16.9609 23.4142 16.5858C23.0391 16.2107 22.5304 16 22 16H18C17.4696 16 16.9609 16.2107 16.5858 16.5858C16.2107 16.9609 16 17.4696 16 18V22C16 22.5304 16.2107 23.0391 16.5858 23.4142C16.9609 23.7893 17.4696 24 18 24H19V32H18C17.4696 32 16.9609 32.2107 16.5858 32.5858C16.2107 32.9609 16 33.4696 16 34V38C16 38.5304 16.2107 39.0391 16.5858 39.4142C16.9609 39.7893 17.4696 40 18 40H22C22.5304 40 23.0391 39.7893 23.4142 39.4142C23.7893 39.0391 24 38.5304 24 38V37H32V38C32 38.5304 32.2107 39.0391 32.5858 39.4142C32.9609 39.7893 33.4696 40 34 40H38C38.5304 40 39.0391 39.7893 39.4142 39.4142C39.7893 39.0391 40 38.5304 40 38V34C40 33.4696 39.7893 32.9609 39.4142 32.5858C39.0391 32.2107 38.5304 32 38 32H37V24H38ZM34 18H38V22H34V18ZM18 18H22V19.9875C21.9984 19.9958 21.9984 20.0042 22 20.0125V22H18V18ZM22 38H18V34H22V35.9875C21.9984 35.9958 21.9984 36.0042 22 36.0125V38ZM38 38H34V34H38V38ZM35 32H34C33.4696 32 32.9609 32.2107 32.5858 32.5858C32.2107 32.9609 32 33.4696 32 34V35H24V34C24 33.4696 23.7893 32.9609 23.4142 32.5858C23.0391 32.2107 22.5304 32 22 32H21V24H22C22.5304 24 23.0391 23.7893 23.4142 23.4142C23.7893 23.0391 24 22.5304 24 22V21H32V22C32 22.5304 32.2107 23.0391 32.5858 23.4142C32.9609 23.7893 33.4696 24 34 24H35V32Z" fill="#FF8A00"/>
</svg>
