<svg width="56" height="57" viewBox="0 0 56 57" fill="none" xmlns="http://www.w3.org/2000/svg">
<rect y="0.5" width="56" height="56" rx="28" fill="#FF8A00" fill-opacity="0.15"/>
<g clip-path="url(#clip0_833_2762)">
<path opacity="0.2" d="M29.3335 26.5C29.3335 27.7856 28.9523 29.0423 28.2381 30.1112C27.5238 31.1801 26.5087 32.0132 25.3209 32.5052C24.1332 32.9972 22.8263 33.1259 21.5654 32.8751C20.3045 32.6243 19.1463 32.0052 18.2373 31.0962C17.3283 30.1872 16.7092 29.029 16.4584 27.7681C16.2076 26.5072 16.3363 25.2003 16.8283 24.0126C17.3203 22.8248 18.1534 21.8097 19.2223 21.0954C20.2912 20.3812 21.5479 20 22.8335 20C24.5574 20 26.2107 20.6848 27.4297 21.9038C28.6487 23.1228 29.3335 24.7761 29.3335 26.5Z" fill="#FF8A00"/>
<path d="M26.9898 32.7401C28.3301 31.8479 29.3476 30.548 29.8919 29.0327C30.4363 27.5174 30.4785 25.8671 30.0124 24.326C29.5464 22.7848 28.5967 21.4346 27.3038 20.4749C26.011 19.5152 24.4437 18.9971 22.8336 18.9971C21.2235 18.9971 19.6561 19.5152 18.3633 20.4749C17.0704 21.4346 16.1208 22.7848 15.6547 24.326C15.1886 25.8671 15.2308 27.5174 15.7752 29.0327C16.3195 30.548 17.3371 31.8479 18.6773 32.7401C16.2529 33.6337 14.1824 35.2872 12.7748 37.4539C12.7008 37.5638 12.6494 37.6874 12.6236 37.8174C12.5978 37.9474 12.5981 38.0812 12.6245 38.2111C12.6509 38.3409 12.7028 38.4643 12.7772 38.5739C12.8517 38.6835 12.9472 38.7773 13.0582 38.8497C13.1692 38.9221 13.2935 38.9717 13.4238 38.9956C13.5542 39.0196 13.688 39.0174 13.8175 38.9892C13.9469 38.9609 14.0695 38.9073 14.1781 38.8312C14.2866 38.7552 14.379 38.6584 14.4498 38.5464C15.3578 37.1498 16.6003 36.0023 18.0644 35.2078C19.5285 34.4134 21.1678 33.9973 22.8336 33.9973C24.4993 33.9973 26.1387 34.4134 27.6028 35.2078C29.0669 36.0023 30.3093 37.1498 31.2173 38.5464C31.364 38.7644 31.5905 38.9159 31.848 38.9681C32.1055 39.0204 32.3732 38.9692 32.5933 38.8257C32.8134 38.6822 32.9681 38.4578 33.0241 38.2011C33.08 37.9444 33.0327 37.676 32.8923 37.4539C31.4847 35.2872 29.4142 33.6337 26.9898 32.7401ZM17.3336 26.5001C17.3336 25.4123 17.6561 24.3489 18.2605 23.4445C18.8648 22.54 19.7238 21.8351 20.7288 21.4188C21.7338 21.0025 22.8397 20.8936 23.9066 21.1058C24.9735 21.318 25.9535 21.8418 26.7226 22.611C27.4918 23.3802 28.0157 24.3602 28.2279 25.4271C28.4401 26.494 28.3312 27.5999 27.9149 28.6049C27.4986 29.6099 26.7937 30.4688 25.8892 31.0732C24.9847 31.6775 23.9214 32.0001 22.8336 32.0001C21.3754 31.9985 19.9774 31.4185 18.9463 30.3874C17.9152 29.3563 17.3352 27.9583 17.3336 26.5001ZM43.6011 38.8376C43.3789 38.9825 43.1084 39.0331 42.8489 38.9785C42.5894 38.9239 42.3622 38.7685 42.2173 38.5464C41.3104 37.149 40.0681 36.0009 38.6037 35.2068C37.1393 34.4127 35.4994 33.9979 33.8336 34.0001C33.5683 34.0001 33.314 33.8948 33.1265 33.7072C32.9389 33.5197 32.8336 33.2653 32.8336 33.0001C32.8336 32.7349 32.9389 32.4805 33.1265 32.293C33.314 32.1055 33.5683 32.0001 33.8336 32.0001C34.6435 31.9993 35.4433 31.8197 36.1758 31.474C36.9083 31.1283 37.5554 30.6251 38.0708 30.0003C38.5863 29.3756 38.9574 28.6447 39.1576 27.8598C39.3579 27.075 39.3823 26.2557 39.2292 25.4603C39.0761 24.6649 38.7492 23.9132 38.2718 23.2589C37.7945 22.6045 37.1785 22.0636 36.4679 21.6749C35.7574 21.2862 34.9697 21.0592 34.1612 21.0102C33.3527 20.9612 32.5434 21.0913 31.7911 21.3914C31.6684 21.4444 31.5363 21.4723 31.4027 21.4734C31.2691 21.4746 31.1366 21.4489 31.013 21.3979C30.8895 21.347 30.7774 21.2718 30.6834 21.1768C30.5894 21.0818 30.5154 20.9689 30.4658 20.8449C30.4161 20.7208 30.3919 20.588 30.3944 20.4544C30.397 20.3208 30.4263 20.189 30.4806 20.0669C30.5349 19.9448 30.6132 19.8349 30.7107 19.7435C30.8083 19.6522 30.9232 19.5813 31.0486 19.5351C32.7704 18.8484 34.6855 18.8237 36.4245 19.4657C38.1635 20.1078 39.6031 21.3711 40.4656 23.0119C41.3281 24.6527 41.5524 26.5548 41.0952 28.3513C40.638 30.1477 39.5317 31.7112 37.9898 32.7401C40.4142 33.6337 42.4847 35.2872 43.8923 37.4539C44.0372 37.676 44.0878 37.9466 44.0332 38.2061C43.9786 38.4655 43.8232 38.6927 43.6011 38.8376Z" fill="#FF8A00"/>
</g>
<defs>
<clipPath id="clip0_833_2762">
<rect width="32" height="32" fill="white" transform="translate(12.3335 13)"/>
</clipPath>
</defs>
</svg>
