<svg xmlns="http://www.w3.org/2000/svg" fill="none" viewBox="0 0 98 100" height="47" width="47" style="margin: initial; display: block; shape-rendering: auto; background: rgba(255, 255, 255, 0);" preserveAspectRatio="xMidYMid"><g class="ldl-scale" style="transform-origin: 50% 50%; transform: rotate(0deg) scale(0.8, 0.8);"><g class="ldl-ani" style="transform-box: view-box; opacity: 1; transform-origin: 49px 80px; transform: matrix3d(1, 0, 0, 0, 0, 1, 0, 0, 0, 0, 1, 0, 0, 0, 0, 1); animation: 1s linear 0s infinite normal forwards running animate;">
<g class="ldl-layer"><g class="ldl-ani"><path fill="#F6881F" d="M77.0609 63.0212C75.4653 64.715 73.8861 66.4252 72.2741 68.1026C71.7177 68.6836 71.8977 69.3791 71.8977 70.0419C71.8895 79.4027 71.865 88.7718 71.9223 98.1326C71.9304 99.4828 71.7095 99.9901 70.1957 99.9655C64.5416 99.8592 58.8874 99.8919 53.2415 99.9492C52.0959 99.9573 51.8259 99.6137 51.8259 98.509C51.8668 87.2007 51.8586 75.9006 51.8341 64.5923C51.8341 63.8477 52.0468 63.3322 52.5705 62.7921C59.1738 56.107 65.7608 49.4136 72.3232 42.6875C72.9778 42.0166 73.657 41.7465 74.5816 41.7547C79.1475 41.7875 83.7215 41.722 88.2874 41.8038C89.6048 41.8284 89.9239 41.4029 89.8994 40.1428C89.8257 35.6342 89.9075 31.1174 89.8421 26.6088C89.8257 25.5369 90.1612 24.8004 90.9222 24.0886C92.5423 22.5584 94.0725 20.9383 95.6681 19.3918C96.0526 19.0154 96.3554 18.2462 96.9527 18.4508C97.6073 18.6799 97.2555 19.449 97.2555 19.9727C97.2555 34.0222 97.2309 48.0635 97.2309 62.113C97.2309 74.1577 97.2391 86.2106 97.3046 98.2554C97.3128 99.5728 97.01 99.9819 95.6353 99.9655C90.2103 99.8837 84.7853 99.8755 79.3602 99.9655C77.9283 99.9901 77.7073 99.4991 77.7073 98.2226C77.7319 87.2007 77.691 76.187 77.6664 65.1651C77.6664 64.5595 77.6664 63.954 77.6664 63.3567C77.4537 63.2503 77.2573 63.1358 77.0609 63.0212Z" style="fill: rgb(246, 136, 31);"></path></g></g>
<g class="ldl-layer"><g class="ldl-ani"><path fill="#10312B" d="M46.1307 50.2321C46.1307 66.2209 46.1144 82.2178 46.1635 98.2065C46.1717 99.6139 45.8689 99.9985 44.4206 99.974C38.8237 99.8676 33.2268 99.8921 27.63 99.9331C26.5253 99.9412 26.1735 99.663 26.1735 98.5093C26.2144 72.4069 26.2226 46.3127 26.2144 20.2103C26.2144 19.4575 26.468 18.9584 26.9672 18.4429C30.813 14.5152 34.6506 10.5794 38.4719 6.61904C40.2311 4.79433 41.9413 2.9287 43.6678 1.07944C44.1587 0.55576 44.6661 -0.180672 45.4107 0.0402576C46.3517 0.326647 46.1798 1.29219 46.1798 2.0859C46.1798 18.1319 46.1798 34.1861 46.1798 50.2321C46.1717 50.2321 46.1553 50.2321 46.1307 50.2321Z" style="fill: rgb(16, 49, 43);"></path></g></g>
<g class="ldl-layer"><g class="ldl-ani"><path fill="#10312B" d="M20.2984 32.9426C20.9366 36.1256 20.7239 39.1368 20.5193 42.1235C20.4211 43.4981 20.5684 44.8401 20.5684 46.1984C20.552 63.5536 20.5357 80.917 20.5929 98.2723C20.6011 99.7451 20.1838 100.023 18.801 99.9988C13.1468 99.9088 7.49265 99.9169 1.84667 99.9742C0.701115 99.9824 0.455636 99.6469 0.463818 98.5586C0.504731 83.6009 0.504731 68.635 0.504731 53.6773C0.504731 52.9899 0.545643 52.4171 1.11842 51.8525C7.32081 45.7074 13.4823 39.5214 19.6683 33.3436C19.7829 33.2372 19.9383 33.1717 20.2984 32.9426Z" style="fill: rgb(16, 49, 43);"></path></g></g>
<g class="ldl-layer"><g class="ldl-ani"><path fill="#10312B" d="M51.8177 37.8268C62.9215 25.8557 74.8599 15.3902 85.7099 3.83643C85.8491 3.91007 85.9882 3.98371 86.1354 4.06554C86.1354 4.54831 86.1354 5.03108 86.1354 5.51385C86.1354 15.7339 86.1109 25.9539 86.1682 36.1658C86.1764 37.4913 85.8654 37.8759 84.4908 37.8677C73.7634 37.8023 63.0361 37.8268 51.8177 37.8268Z" style="fill: rgb(16, 49, 43);"></path></g></g>
</g></g><style type="text/css">@keyframes animate { 0.00% {transform: translate(0.00px,0.00px) rotate(0.00deg) scale(1.00, 1.00) skew(0deg, 0.00deg) ;opacity: 1.00;}2.00% {animation-timing-function: cubic-bezier(0.20,0.39,0.50,0.97);transform: translate(0.00px,-1.08px) rotate(0.00deg) ;}36.00% {animation-timing-function: cubic-bezier(0.50,0.03,0.80,0.61);transform: translate(0.00px,-10.00px) rotate(0.00deg) ;}72.00% {transform: translate(0.00px,-0.12px) rotate(0.00deg) ;}74.00% {animation-timing-function: cubic-bezier(0.24,0.43,0.48,0.91);transform: translate(0.00px,0.00px) rotate(0.00deg) scale(1.00, 0.95) ;}86.00% {animation-timing-function: cubic-bezier(0.53,0.08,0.77,0.57);transform: translate(0.00px,0.00px) rotate(0.00deg) scale(1.00, 0.80) ;}100.00% {animation-timing-function: cubic-bezier(0.53,0.08,0.77,0.57);transform: translate(0.00px,0.00px) rotate(0.00deg) scale(1.00, 1.00) ;} }</style><!-- [ldio] generated by https://loading.io --></svg>