<svg width="280" height="55" viewBox="0 0 280 55" fill="none" xmlns="http://www.w3.org/2000/svg">
<path d="M38.3739 31.6731H28.5686C28.2453 31.6731 27.9831 31.9366 27.9831 32.2615V41.4417C27.9831 41.7667 28.2453 42.0301 28.5686 42.0301H38.3739C38.6972 42.0301 38.9593 41.7667 38.9593 41.4417V32.2615C38.9593 31.9366 38.6972 31.6731 38.3739 31.6731Z" fill="url(#paint0_linear_846_766)"/>
<path d="M48.3675 18.4803V28.638C48.3666 29.0655 48.1956 29.4752 47.892 29.7775C47.5884 30.0797 47.1768 30.25 46.7475 30.2508H41.0706C40.6412 30.25 40.2297 30.0797 39.9261 29.7775C39.6224 29.4752 39.4515 29.0655 39.4506 28.638V23.4365C39.4509 23.1849 39.3917 22.9367 39.278 22.712C39.1643 22.4873 38.9991 22.2923 38.7958 22.1428L37.7833 21.3834L28.7213 14.7001L27.5636 13.8265C27.5267 13.7987 27.4817 13.7836 27.4354 13.7836C27.3891 13.7836 27.3441 13.7987 27.3071 13.8265L15.7172 22.4016C15.6078 22.4828 15.5188 22.5882 15.4573 22.7094C15.3958 22.8307 15.3635 22.9646 15.3628 23.1005V41.094C15.3637 41.5215 15.5347 41.9312 15.8383 42.2335C16.1419 42.5358 16.5534 42.706 16.9828 42.7069H25.5858C26.0152 42.7078 26.4268 42.878 26.7304 43.1803C27.034 43.4826 27.205 43.8923 27.2059 44.3198V49.9312C27.205 50.3587 27.034 50.7684 26.7304 51.0707C26.4268 51.373 26.0152 51.5432 25.5858 51.5441H15.5552C15.3258 51.5433 15.1057 51.4542 14.9409 51.2954L6.25352 42.8716C6.11157 42.7309 6.03146 42.54 6.03076 42.3407V19.2766C6.03049 19.025 6.0896 18.7768 6.20333 18.5521C6.31706 18.3274 6.48223 18.1325 6.68552 17.983L27.0472 2.91607C27.1749 2.82117 27.33 2.7699 27.4894 2.7699C27.6487 2.7699 27.8038 2.82117 27.9315 2.91607L37.7698 10.1975L39.4573 11.4408L48.0199 17.778C48.1285 17.8602 48.2164 17.9665 48.2768 18.0884C48.3371 18.2102 48.3681 18.3444 48.3675 18.4803Z" fill="url(#paint1_linear_846_766)"/>
<path d="M74.6985 40.886C72.7445 40.886 70.9473 40.5729 69.3069 39.9467C67.6665 39.2963 66.2432 38.3931 65.0371 37.237C63.8309 36.0568 62.8901 34.6839 62.2146 33.1183C61.5391 31.5527 61.2014 29.8305 61.2014 27.9518C61.2014 26.0731 61.5391 24.351 62.2146 22.7854C62.8901 21.2198 63.8309 19.8589 65.0371 18.7028C66.2674 17.5226 67.7027 16.6193 69.3431 15.9931C70.9835 15.3428 72.7928 15.0176 74.7709 15.0176C76.7731 15.0176 78.6065 15.3428 80.271 15.9931C81.9356 16.6434 83.3468 17.6189 84.5047 18.9196L82.2612 21.1596C81.2239 20.1479 80.0901 19.4133 78.8598 18.9557C77.6536 18.474 76.3389 18.2331 74.9156 18.2331C73.4682 18.2331 72.1173 18.474 70.8629 18.9557C69.6326 19.4374 68.5591 20.1118 67.6424 20.9789C66.7498 21.846 66.0502 22.8817 65.5436 24.086C65.0612 25.2662 64.8199 26.5548 64.8199 27.9518C64.8199 29.3247 65.0612 30.6133 65.5436 31.8176C66.0502 32.9978 66.7498 34.0335 67.6424 34.9247C68.5591 35.7918 69.6326 36.4662 70.8629 36.9479C72.0932 37.4297 73.432 37.6705 74.8794 37.6705C76.2304 37.6705 77.521 37.4658 78.7513 37.0563C80.0057 36.6228 81.1636 35.9122 82.225 34.9247L84.2876 37.6705C83.0332 38.7303 81.5617 39.5372 79.873 40.0912C78.2085 40.6211 76.4837 40.886 74.6985 40.886ZM80.8138 37.2008V27.8073H84.2876V37.6705L80.8138 37.2008Z" fill="white"/>
<path d="M98.9231 40.8138C96.9932 40.8138 95.2805 40.3922 93.7848 39.5492C92.2892 38.7062 91.1071 37.5501 90.2387 36.0808C89.3702 34.5875 88.936 32.9015 88.936 31.0228C88.936 29.12 89.3702 27.434 90.2387 25.9647C91.1071 24.4955 92.2892 23.3514 93.7848 22.5325C95.2805 21.6895 96.9932 21.2679 98.9231 21.2679C100.829 21.2679 102.53 21.6895 104.025 22.5325C105.545 23.3514 106.727 24.4955 107.571 25.9647C108.44 27.4099 108.874 29.0959 108.874 31.0228C108.874 32.9256 108.44 34.6116 107.571 36.0808C106.727 37.5501 105.545 38.7062 104.025 39.5492C102.53 40.3922 100.829 40.8138 98.9231 40.8138ZM98.9231 37.7789C100.153 37.7789 101.251 37.5019 102.216 36.9479C103.205 36.394 103.977 35.6112 104.532 34.5996C105.087 33.5639 105.364 32.3716 105.364 31.0228C105.364 29.6499 105.087 28.4697 104.532 27.4821C103.977 26.4705 103.205 25.6877 102.216 25.1338C101.251 24.5798 100.153 24.3028 98.9231 24.3028C97.6928 24.3028 96.5952 24.5798 95.6303 25.1338C94.6653 25.6877 93.8934 26.4705 93.3144 27.4821C92.7354 28.4697 92.446 29.6499 92.446 31.0228C92.446 32.3716 92.7354 33.5639 93.3144 34.5996C93.8934 35.6112 94.6653 36.394 95.6303 36.9479C96.5952 37.5019 97.6928 37.7789 98.9231 37.7789Z" fill="white"/>
<path d="M113.678 40.597V13.7892H117.152V40.597H113.678Z" fill="white"/>
<path d="M131.709 40.8138C129.852 40.8138 128.187 40.4043 126.716 39.5854C125.268 38.7664 124.122 37.6224 123.278 36.1531C122.434 34.6839 122.012 32.9738 122.012 31.0228C122.012 29.0718 122.434 27.3738 123.278 25.9286C124.122 24.4593 125.268 23.3153 126.716 22.4963C128.187 21.6774 129.852 21.2679 131.709 21.2679C133.325 21.2679 134.785 21.6292 136.088 22.3518C137.39 23.0744 138.428 24.1583 139.2 25.6034C139.996 27.0486 140.394 28.855 140.394 31.0228C140.394 33.1905 140.008 34.997 139.236 36.4421C138.488 37.8873 137.463 38.9832 136.16 39.7299C134.857 40.4525 133.374 40.8138 131.709 40.8138ZM131.999 37.7789C133.205 37.7789 134.29 37.5019 135.255 36.9479C136.244 36.394 137.016 35.6112 137.571 34.5996C138.15 33.5639 138.44 32.3716 138.44 31.0228C138.44 29.6499 138.15 28.4697 137.571 27.4821C137.016 26.4705 136.244 25.6877 135.255 25.1338C134.29 24.5798 133.205 24.3028 131.999 24.3028C130.768 24.3028 129.671 24.5798 128.706 25.1338C127.741 25.6877 126.969 26.4705 126.39 27.4821C125.811 28.4697 125.522 29.6499 125.522 31.0228C125.522 32.3716 125.811 33.5639 126.39 34.5996C126.969 35.6112 127.741 36.394 128.706 36.9479C129.671 37.5019 130.768 37.7789 131.999 37.7789ZM138.548 40.597V35.4305L138.765 30.9867L138.404 26.5428V13.7892H141.877V40.597H138.548Z" fill="white"/>
<path d="M156.99 40.8138C154.939 40.8138 153.13 40.3922 151.562 39.5492C150.018 38.7062 148.812 37.5501 147.943 36.0808C147.099 34.6116 146.677 32.9256 146.677 31.0228C146.677 29.12 147.087 27.434 147.907 25.9647C148.752 24.4955 149.897 23.3514 151.345 22.5325C152.816 21.6895 154.469 21.2679 156.302 21.2679C158.16 21.2679 159.8 21.6774 161.223 22.4963C162.647 23.3153 163.756 24.4714 164.552 25.9647C165.373 27.434 165.783 29.1561 165.783 31.1312C165.783 31.2757 165.771 31.4443 165.747 31.637C165.747 31.8297 165.734 32.0103 165.71 32.1789H149.391V29.686H163.901L162.49 30.5531C162.514 29.3247 162.261 28.2288 161.73 27.2654C161.199 26.3019 160.463 25.5553 159.523 25.0254C158.606 24.4714 157.532 24.1944 156.302 24.1944C155.096 24.1944 154.023 24.4714 153.082 25.0254C152.141 25.5553 151.405 26.314 150.874 27.3015C150.344 28.2649 150.078 29.3729 150.078 30.6254V31.2034C150.078 32.48 150.368 33.6241 150.947 34.6357C151.55 35.6232 152.382 36.394 153.444 36.9479C154.505 37.5019 155.723 37.7789 157.098 37.7789C158.232 37.7789 159.257 37.5862 160.174 37.2008C161.115 36.8155 161.935 36.2374 162.635 35.4667L164.552 37.7067C163.684 38.7183 162.598 39.489 161.296 40.0189C160.017 40.5488 158.582 40.8138 156.99 40.8138Z" fill="white"/>
<path d="M180.847 21.2679C182.415 21.2679 183.79 21.569 184.972 22.1712C186.178 22.7733 187.119 23.6886 187.794 24.917C188.47 26.1454 188.808 27.6989 188.808 29.5776V40.597H185.334V29.975C185.334 28.1204 184.875 26.7234 183.959 25.7841C183.066 24.8447 181.8 24.375 180.159 24.375C178.929 24.375 177.856 24.6159 176.939 25.0976C176.022 25.5793 175.31 26.2899 174.804 27.2292C174.321 28.1686 174.08 29.3368 174.08 30.7338V40.597H170.606V21.4486H173.935V26.615L173.393 25.2421C174.02 23.9897 174.985 23.0142 176.287 22.3157C177.59 21.6172 179.11 21.2679 180.847 21.2679Z" fill="white"/>
<path d="M195.236 40.597V13.7892H198.71V40.597H195.236Z" fill="white"/>
<path d="M213.557 40.8138C211.627 40.8138 209.914 40.3922 208.419 39.5492C206.923 38.7062 205.741 37.5501 204.872 36.0808C204.004 34.5875 203.57 32.9015 203.57 31.0228C203.57 29.12 204.004 27.434 204.872 25.9647C205.741 24.4955 206.923 23.3514 208.419 22.5325C209.914 21.6895 211.627 21.2679 213.557 21.2679C215.463 21.2679 217.163 21.6895 218.659 22.5325C220.179 23.3514 221.361 24.4955 222.205 25.9647C223.074 27.4099 223.508 29.0959 223.508 31.0228C223.508 32.9256 223.074 34.6116 222.205 36.0808C221.361 37.5501 220.179 38.7062 218.659 39.5492C217.163 40.3922 215.463 40.8138 213.557 40.8138ZM213.557 37.7789C214.787 37.7789 215.885 37.5019 216.85 36.9479C217.839 36.394 218.611 35.6112 219.166 34.5996C219.72 33.5639 219.998 32.3716 219.998 31.0228C219.998 29.6499 219.72 28.4697 219.166 27.4821C218.611 26.4705 217.839 25.6877 216.85 25.1338C215.885 24.5798 214.787 24.3028 213.557 24.3028C212.327 24.3028 211.229 24.5798 210.264 25.1338C209.299 25.6877 208.527 26.4705 207.948 27.4821C207.369 28.4697 207.08 29.6499 207.08 31.0228C207.08 32.3716 207.369 33.5639 207.948 34.5996C208.527 35.6112 209.299 36.394 210.264 36.9479C211.229 37.5019 212.327 37.7789 213.557 37.7789Z" fill="white"/>
<path d="M236.526 40.8138C234.596 40.8138 232.883 40.3922 231.388 39.5492C229.892 38.7062 228.71 37.5501 227.842 36.0808C226.973 34.5875 226.539 32.9015 226.539 31.0228C226.539 29.12 226.973 27.434 227.842 25.9647C228.71 24.4955 229.892 23.3514 231.388 22.5325C232.883 21.6895 234.596 21.2679 236.526 21.2679C238.432 21.2679 240.132 21.6895 241.628 22.5325C243.148 23.3514 244.33 24.4955 245.174 25.9647C246.043 27.4099 246.477 29.0959 246.477 31.0228C246.477 32.9256 246.043 34.6116 245.174 36.0808C244.33 37.5501 243.148 38.7062 241.628 39.5492C240.132 40.3922 238.432 40.8138 236.526 40.8138ZM236.526 37.7789C237.756 37.7789 238.854 37.5019 239.819 36.9479C240.808 36.394 241.58 35.6112 242.135 34.5996C242.69 33.5639 242.967 32.3716 242.967 31.0228C242.967 29.6499 242.69 28.4697 242.135 27.4821C241.58 26.4705 240.808 25.6877 239.819 25.1338C238.854 24.5798 237.756 24.3028 236.526 24.3028C235.296 24.3028 234.198 24.5798 233.233 25.1338C232.268 25.6877 231.496 26.4705 230.917 27.4821C230.338 28.4697 230.049 29.6499 230.049 31.0228C230.049 32.3716 230.338 33.5639 230.917 34.5996C231.496 35.6112 232.268 36.394 233.233 36.9479C234.198 37.5019 235.296 37.7789 236.526 37.7789Z" fill="white"/>
<path d="M261.522 21.2679C263.09 21.2679 264.465 21.569 265.647 22.1712C266.853 22.7733 267.794 23.6886 268.469 24.917C269.145 26.1454 269.482 27.6989 269.482 29.5776V40.597H266.009V29.975C266.009 28.1204 265.55 26.7234 264.633 25.7841C263.741 24.8447 262.474 24.375 260.834 24.375C259.604 24.375 258.53 24.6159 257.614 25.0976C256.697 25.5793 255.985 26.2899 255.479 27.2292C254.996 28.1686 254.755 29.3368 254.755 30.7338V40.597H251.281V21.4486H254.61V26.615L254.067 25.2421C254.695 23.9897 255.66 23.0142 256.962 22.3157C258.265 21.6172 259.785 21.2679 261.522 21.2679Z" fill="white"/>
<path d="M275.911 40.597V21.4486H279.385V40.597H275.911ZM277.648 17.7634C276.973 17.7634 276.406 17.5467 275.947 17.1131C275.513 16.6796 275.296 16.1497 275.296 15.5234C275.296 14.8731 275.513 14.3312 275.947 13.8976C276.406 13.4641 276.973 13.2473 277.648 13.2473C278.323 13.2473 278.878 13.4641 279.313 13.8976C279.771 14.3071 280 14.8249 280 15.4512C280 16.1015 279.783 16.6555 279.349 17.1131C278.915 17.5467 278.348 17.7634 277.648 17.7634Z" fill="white"/>
<defs>
<linearGradient id="paint0_linear_846_766" x1="6.02893" y1="27.1571" x2="48.3674" y2="27.1571" gradientUnits="userSpaceOnUse">
<stop stop-color="#F9C924"/>
<stop offset="0.2652" stop-color="#FFF98C"/>
<stop offset="0.7321" stop-color="#E4AF18"/>
<stop offset="1" stop-color="#FFD440"/>
</linearGradient>
<linearGradient id="paint1_linear_846_766" x1="6.02893" y1="27.1571" x2="48.3674" y2="27.1571" gradientUnits="userSpaceOnUse">
<stop stop-color="#F9C924"/>
<stop offset="0.2652" stop-color="#FFF98C"/>
<stop offset="0.7321" stop-color="#E4AF18"/>
<stop offset="1" stop-color="#FFD440"/>
</linearGradient>
</defs>
</svg>
