<svg width="52" height="52" viewBox="0 0 52 52" fill="none" xmlns="http://www.w3.org/2000/svg">
<rect x="1.33337" y="1" width="50" height="50" rx="25" fill="#007FFF"/>
<rect x="1.33337" y="1" width="50" height="50" rx="25" stroke="white" stroke-opacity="0.3"/>
<path d="M22.67 28H18C16.9 28 16 28.9 16 30V36H22.67V28Z" stroke="white" stroke-width="1.5" stroke-miterlimit="10" stroke-linecap="round" stroke-linejoin="round"/>
<path d="M27.33 24H24.66C23.56 24 22.66 24.9 22.66 26V36H29.33V26C29.33 24.9 28.44 24 27.33 24Z" stroke="white" stroke-width="1.5" stroke-miterlimit="10" stroke-linecap="round" stroke-linejoin="round"/>
<path d="M34 31H29.33V36H36V33C36 31.9 35.1 31 34 31Z" stroke="white" stroke-width="1.5" stroke-miterlimit="10" stroke-linecap="round" stroke-linejoin="round"/>
<path d="M26.52 16.0701L27.05 17.1301C27.12 17.2801 27.31 17.4201 27.47 17.4401L28.43 17.6001C29.04 17.7001 29.19 18.15 28.75 18.58L28 19.33C27.87 19.46 27.8 19.7001 27.84 19.8701L28.05 20.7901C28.22 21.5201 27.83 21.8001 27.19 21.4201L26.29 20.8901C26.13 20.7901 25.86 20.7901 25.7 20.8901L24.8 21.4201C24.16 21.8001 23.77 21.5201 23.94 20.7901L24.15 19.8701C24.19 19.7001 24.12 19.45 23.99 19.33L23.25 18.5901C22.81 18.1501 22.95 17.71 23.57 17.61L24.53 17.4501C24.69 17.4201 24.88 17.2801 24.95 17.1401L25.48 16.08C25.77 15.5 26.23 15.5001 26.52 16.0701Z" stroke="white" stroke-width="1.5" stroke-linecap="round" stroke-linejoin="round"/>
</svg>
